<?xml version="1.0" encoding="utf-8"?>
<!-- Generator: Adobe Illustrator 24.3.0, SVG Export Plug-In . SVG Version: 6.00 Build 0)  -->
<svg version="1.1" id="Layer_1" xmlns="http://www.w3.org/2000/svg" xmlns:xlink="http://www.w3.org/1999/xlink" x="0px" y="0px"
	 viewBox="0 0 792 612" style="enable-background:new 0 0 792 612;" xml:space="preserve">
<style type="text/css">
	.st0{fill:none;stroke:#000000;stroke-width:0.5;stroke-miterlimit:10;}
	.st1{fill:#FFFFFF;}
	.st2{fill:#264B23;}
	.st3{fill:#84CB9F;}
	.st4{fill:#B7D884;}
</style>
<g>
	<path d="M214.92,207.21c0-3.78,0.87-6.65,2.6-8.61c1.73-1.96,4.13-2.94,7.18-2.94c3.05,0,5.29,1.26,6.71,3.79
		c1.42,2.53,2.13,6.74,2.13,12.65v2.73h-5.07v-3.66c0-3.62-0.3-6.33-0.9-8.13c-0.6-1.8-1.65-2.7-3.14-2.7
		c-1.49,0-2.63,0.52-3.4,1.56c-0.78,1.04-1.16,2.83-1.16,5.38c0,0.07,0,0.14,0,0.21c0,3.99,1.78,7.78,5.33,11.38l2.52,2.56
		c4.34,4.53,6.51,9.54,6.51,15c0,3.65-0.75,6.52-2.26,8.63c-1.51,2.11-3.87,3.16-7.1,3.16c-3.23,0-5.65-1.16-7.25-3.49
		c-1.6-2.32-2.41-6.03-2.41-11.11v-4.41h5.01v3.52c0,7.22,1.51,10.83,4.52,10.83c1.61,0,2.76-0.55,3.44-1.64
		c0.68-1.09,1.01-3.03,1.01-5.81c0-4.12-1.7-8-5.11-11.62l-2.59-2.73C217.11,217.13,214.92,212.27,214.92,207.21z"/>
	<path d="M253.18,212.92c0-5.81,0.44-9.83,1.31-12.06c0.83-2.23,1.98-3.69,3.47-4.37c0.83-0.36,1.81-0.56,2.95-0.58
		c3.21,0,5.4,1.48,6.58,4.44v-4.07h4.91v60.32h-4.91v-12.68c-0.48,1.21-1.2,2.22-2.16,3.02c-0.96,0.81-2.17,1.21-3.62,1.21
		c-1.45,0-2.79-0.42-4.01-1.26c-3.01-2.07-4.52-7.31-4.52-15.72V212.92z M267.45,212.1c0-5.29-0.43-8.59-1.29-9.91
		c-0.86-1.32-2.13-1.98-3.8-1.98c-1.67,0-2.81,0.89-3.42,2.68c-0.61,1.79-0.92,4.93-0.92,9.42v20.3c0,4.74,0.35,7.76,1.05,9.07
		c0.7,1.31,1.75,1.97,3.16,1.97c1.41,0,2.41-0.28,3.01-0.85c0.6-0.57,1.12-1.49,1.55-2.77c0.44-1.28,0.65-3.79,0.65-7.55V212.1z"/>
	<path d="M298.16,237.56c0,3.94,1.66,5.91,4.98,5.91c1.61,0,2.91-0.56,3.88-1.69c0.97-1.13,1.46-2.66,1.46-4.6l-0.03-40.91h4.91
		v51.27h-4.88v-5.13c-0.41,1.55-1.3,2.91-2.67,4.07c-1.36,1.16-2.94,1.74-4.73,1.74c-1.79,0-3.54-0.77-5.24-2.31
		c-1.7-1.54-2.55-4.24-2.55-8.12v-41.53h4.88V237.56z"/>
	<path d="M334.03,212.89c0-5.97,0.52-10.07,1.57-12.3c1.09-2.23,2.55-3.68,4.39-4.34c1.09-0.39,2.35-0.58,3.78-0.58
		c1.43,0,2.67,0.18,3.72,0.55c1.59,0.55,2.93,2.04,4.02,4.48c0.79,1.71,1.18,5.91,1.18,12.61v8.54h-13.78v10.32
		c0,5.29,0.38,8.53,1.13,9.72c0.75,1.2,1.87,1.79,3.34,1.79c1.47,0,2.51-0.48,3.11-1.44c0.6-0.96,0.97-2.19,1.11-3.71
		c0.14-1.51,0.21-3.57,0.21-6.17v-3.83h4.75v1.67c0,5.06-0.16,8.52-0.49,10.39c-0.83,5.04-3.53,7.55-8.09,7.55
		c-3.97,0-6.61-1.28-7.92-3.83c-0.9-1.69-1.46-3.61-1.69-5.78c-0.23-2.16-0.34-4.99-0.34-8.48V212.89z M347.81,217.57v-6.87
		c0-3.85-0.14-6.37-0.43-7.55c-0.48-2-1.68-3.01-3.6-3.01c-2.57,0-4.1,1.77-4.58,5.3c-0.2,1.44-0.29,3.19-0.29,5.26
		c0,0.21,0,0.41,0,0.62v6.25H347.81z"/>
	<path d="M372.03,212.89c0-5.97,0.52-10.07,1.57-12.3c1.09-2.23,2.55-3.68,4.39-4.34c1.09-0.39,2.35-0.58,3.78-0.58
		c1.43,0,2.67,0.18,3.71,0.55c1.59,0.55,2.93,2.04,4.03,4.48c0.79,1.71,1.18,5.91,1.18,12.61v8.54h-13.78v10.32
		c0,5.29,0.38,8.53,1.13,9.72c0.75,1.2,1.86,1.79,3.34,1.79c1.47,0,2.51-0.48,3.11-1.44c0.6-0.96,0.97-2.19,1.11-3.71
		c0.14-1.51,0.21-3.57,0.21-6.17v-3.83h4.75v1.67c0,5.06-0.16,8.52-0.49,10.39c-0.83,5.04-3.52,7.55-8.08,7.55
		c-3.97,0-6.61-1.28-7.92-3.83c-0.9-1.69-1.46-3.61-1.69-5.78c-0.23-2.16-0.34-4.99-0.34-8.48V212.89z M385.81,217.57v-6.87
		c0-3.85-0.14-6.37-0.43-7.55c-0.48-2-1.68-3.01-3.6-3.01c-2.58,0-4.1,1.77-4.58,5.3c-0.2,1.44-0.29,3.19-0.29,5.26
		c0,0.21,0,0.41,0,0.62v6.25H385.81z"/>
	<path d="M409.34,196.28h15.15v3.18l-10.93,43.64h10.28v4.44h-15.32v-3.69l10.77-43.17h-9.95V196.28z"/>
	<path d="M442.08,212.89c0-5.97,0.52-10.07,1.57-12.3c1.09-2.23,2.55-3.68,4.39-4.34c1.09-0.39,2.35-0.58,3.78-0.58
		c1.43,0,2.67,0.18,3.71,0.55c1.59,0.55,2.93,2.04,4.03,4.48c0.79,1.71,1.18,5.91,1.18,12.61v8.54h-13.78v10.32
		c0,5.29,0.38,8.53,1.13,9.72c0.75,1.2,1.86,1.79,3.34,1.79s2.51-0.48,3.11-1.44c0.6-0.96,0.97-2.19,1.11-3.71
		c0.14-1.51,0.21-3.57,0.21-6.17v-3.83h4.75v1.67c0,5.06-0.16,8.52-0.49,10.39c-0.83,5.04-3.52,7.55-8.08,7.55
		c-3.97,0-6.61-1.28-7.92-3.83c-0.9-1.69-1.46-3.61-1.69-5.78c-0.23-2.16-0.34-4.99-0.34-8.48V212.89z M455.85,217.57v-6.87
		c0-3.85-0.14-6.37-0.43-7.55c-0.48-2-1.68-3.01-3.6-3.01c-2.57,0-4.1,1.77-4.58,5.3c-0.2,1.44-0.29,3.19-0.29,5.26
		c0,0.21,0,0.41,0,0.62v6.25H455.85z"/>
	<path d="M494.41,186.6h4.91v60.94h-4.91v-3.9c-1.14,2.85-3.31,4.27-6.51,4.27c-3.64-0.02-5.96-2.29-6.94-6.8
		c-0.55-2.48-0.82-5.82-0.82-10.01v-18.01c0-6.88,0.79-11.51,2.37-13.88c1.58-2.37,3.81-3.55,6.69-3.55c1.11,0,2.14,0.42,3.09,1.25
		c0.95,0.83,1.65,1.84,2.11,3.02V186.6z M494.44,212.1c0-4.4-0.32-7.48-0.97-9.25c-0.64-1.77-1.89-2.65-3.75-2.65
		s-3.1,0.91-3.73,2.72c-0.63,1.81-0.95,4.95-0.95,9.42v20.3c0,4.69,0.35,7.7,1.06,9.02c0.71,1.32,1.76,1.98,3.16,1.98
		s2.39-0.27,2.99-0.8c0.6-0.53,1.11-1.44,1.54-2.7c0.43-1.26,0.64-3.74,0.64-7.43V212.1z"/>
	<path d="M543.21,186.6h4.91v60.94h-4.91V186.6z"/>
	<path d="M569.92,186.64h4.88v4.92h-4.88V186.64z M569.92,196.28h4.91v51.27h-4.91V196.28z"/>
	<path d="M626.16,205.64c0-3.53-1.49-5.3-4.48-5.3c-2.51,0-4.11,0.76-4.81,2.29c-0.31,0.68-0.5,1.54-0.59,2.56v42.35h-4.88v-41.9
		c0-1.96-0.39-3.33-1.16-4.12c-0.78-0.79-1.95-1.18-3.54-1.18s-2.84,0.5-3.78,1.49c-0.94,0.99-1.41,2.46-1.41,4.39v41.32h-4.88
		v-51.27h4.88v5.09c0.44-1.55,1.35-2.89,2.73-4.03c1.39-1.14,2.97-1.71,4.76-1.71c3.27,0,5.47,1.73,6.58,5.19
		c0.81-1.55,1.95-2.8,3.44-3.76c1.48-0.96,3.21-1.44,5.17-1.44s3.6,0.85,4.91,2.56c1.31,1.71,1.96,4.3,1.96,7.76v41.59h-4.91V205.64
		z"/>
	<path d="M651.42,212.89c0-5.97,0.52-10.07,1.57-12.3c1.09-2.23,2.55-3.68,4.39-4.34c1.09-0.39,2.35-0.58,3.78-0.58
		c1.43,0,2.67,0.18,3.71,0.55c1.59,0.55,2.93,2.04,4.03,4.48c0.79,1.71,1.18,5.91,1.18,12.61v8.54H656.3v10.32
		c0,5.29,0.38,8.53,1.13,9.72c0.75,1.2,1.86,1.79,3.34,1.79c1.47,0,2.51-0.48,3.11-1.44c0.6-0.96,0.97-2.19,1.11-3.71
		c0.14-1.51,0.21-3.57,0.21-6.17v-3.83h4.75v1.67c0,5.06-0.16,8.52-0.49,10.39c-0.83,5.04-3.52,7.55-8.08,7.55
		c-3.97,0-6.61-1.28-7.92-3.83c-0.9-1.69-1.46-3.61-1.69-5.78c-0.23-2.16-0.34-4.99-0.34-8.48V212.89z M665.2,217.57v-6.87
		c0-3.85-0.14-6.37-0.43-7.55c-0.48-2-1.68-3.01-3.6-3.01c-2.57,0-4.1,1.77-4.58,5.3c-0.2,1.44-0.29,3.19-0.29,5.26
		c0,0.21,0,0.41,0,0.62v6.25H665.2z"/>
	<path d="M230.13,270.74h6.74v60.8h-6.74v-4.31c-1.22,3.17-3.48,4.75-6.77,4.75c-4.52,0-7.17-3.11-7.95-9.33
		c-0.26-2.07-0.39-4.58-0.39-7.52v-19.38c0-6.17,0.96-10.54,2.88-13.09c1.53-2,3.69-3.01,6.48-3.01c1.22,0,2.35,0.38,3.39,1.13
		c1.04,0.75,1.83,1.72,2.37,2.91V270.74z M230.16,295.65c0-3.6-0.29-6.19-0.87-7.76c-0.58-1.57-1.69-2.36-3.34-2.36
		c-1.65,0-2.76,0.79-3.34,2.38c-0.58,1.58-0.87,4.22-0.87,7.91v20.71c0,5.01,0.63,8.04,1.9,9.09c0.52,0.43,1.27,0.65,2.23,0.65
		c0.96,0,1.75-0.27,2.36-0.82c1.29-1.14,1.93-4.22,1.93-9.23V295.65z"/>
	<path d="M305.37,296.17c0-6.47,1.11-10.97,3.34-13.5c1.75-2,4.32-3.01,7.72-3.01c4.93,0,8.03,2.22,9.3,6.66
		c0.7,2.51,1.05,5.89,1.05,10.15v9.67h-14.66v10.22c0,4.44,0.34,7.21,1.01,8.31c0.68,1.09,1.75,1.64,3.21,1.64s2.44-0.64,2.93-1.91
		c0.49-1.28,0.75-2.66,0.77-4.15c0.02-1.49,0.03-2.75,0.03-3.78v-4.14h6.58v2.19c0,5.45-0.37,9.26-1.1,11.45
		c-0.73,2.19-1.84,3.77-3.32,4.73c-1.48,0.97-3.32,1.45-5.51,1.45c-2.19,0-3.95-0.29-5.27-0.87c-1.32-0.58-2.37-1.35-3.14-2.31
		c-0.78-0.96-1.46-2.48-2.05-4.58c-0.59-2.1-0.88-5.47-0.88-10.12V296.17z M320.06,294.87c0-3.65-0.13-5.84-0.38-6.6
		c-0.25-0.75-0.57-1.41-0.97-1.98c-0.39-0.57-1.1-0.85-2.13-0.85c-1.96,0-3.21,0.86-3.73,2.58c-0.52,1.72-0.79,4.08-0.79,7.09v6.29
		h7.99V294.87z"/>
	<path d="M414.58,319.78c-0.02,8.29-3.52,12.44-10.51,12.44c-3.53,0-6.19-1.17-7.95-3.52c-1.77-2.35-2.65-6.12-2.65-11.31v-3.86
		h6.51v3.83c0,5.92,1.29,8.89,3.86,8.89c1.42,0,2.44-0.48,3.06-1.44c0.62-0.96,0.93-2.62,0.93-4.99c0-3.71-1.64-7.25-4.91-10.6
		c-0.24-0.25-0.81-0.81-1.7-1.69c-0.9-0.88-1.48-1.46-1.77-1.76c-4.25-4.24-6.38-8.92-6.38-14.05c0-4.06,0.92-7.08,2.75-9.07
		c1.83-1.99,4.44-2.99,7.82-2.99c2.29,0,4.16,0.49,5.6,1.47c3.01,2.05,4.52,6.89,4.52,14.53v2.46h-6.38v-3.55
		c0-2.98-0.28-5.21-0.83-6.68c-0.56-1.47-1.51-2.2-2.86-2.2c-1.35,0-2.37,0.44-3.04,1.33c-0.68,0.89-1.01,2.39-1.01,4.51
		c0,3.33,1.49,6.54,4.48,9.64l3.53,3.45C412.26,309.23,414.58,314.29,414.58,319.78z"/>
	<path d="M481.11,269.13h6.74v6.43h-6.74V269.13z M481.11,280.27h6.71v51.27h-6.71V280.27z"/>
	<path d="M565.41,279.66c3.08,0,5.07,1.46,5.99,4.37v-3.76h6.71v46.48c0,6.11-2.2,10.01-6.61,11.72c-1.53,0.59-3.3,0.89-5.3,0.89
		c-4.01,0-7.34-1.09-9.98-3.28l2.42-4.78c2.38,1.69,4.9,2.53,7.56,2.53c1.77,0,3.08-0.58,3.93-1.74c0.85-1.16,1.28-2.72,1.28-4.68
		v-4.89c-0.59,1.59-1.41,2.7-2.45,3.31c-1.09,0.61-2.44,0.92-4.06,0.92c-3.27,0-5.52-1.45-6.74-4.34
		c-1.22-2.89-1.83-6.78-1.83-11.65v-14.7C556.31,285.13,559.34,279.66,565.41,279.66z M571.4,295.04c0-3.33-0.29-5.75-0.87-7.26
		c-0.58-1.52-1.59-2.27-3.04-2.27s-2.47,0.43-3.06,1.3c-0.59,0.87-0.97,1.95-1.13,3.25c-0.16,1.3-0.24,2.94-0.24,4.92v15.96
		c0,3.62,0.32,6.24,0.95,7.84c0.63,1.61,1.82,2.41,3.57,2.41c0.92,0,1.64-0.27,2.16-0.82c1.09-1.12,1.65-4.28,1.67-9.5V295.04z"/>
	<path d="M653.9,285.71c0.44-1.66,1.39-3.09,2.86-4.29c1.47-1.2,3.31-1.79,5.5-1.79c2.19,0,3.97,0.93,5.33,2.79
		c1.36,1.86,2.05,4.61,2.05,8.25v40.88h-6.71V290.7c0-1.73-0.38-3.03-1.15-3.9c-0.76-0.87-1.82-1.3-3.17-1.3
		c-1.35,0-2.48,0.49-3.37,1.47c-0.9,0.98-1.34,2.45-1.34,4.41v40.16h-6.71v-51.27h6.71V285.71z"/>
</g>
<line class="st0" x1="211.58" y1="351" x2="678.3" y2="351"/>
<g>
	<path d="M225.63,363.75h1.76l-2.66,22.92h-1.83l-2.72-18.85l-2.92,18.85h-1.71l-3.1-22.92h1.82l2.29,18.72l2.74-18.72h1.55
		l2.93,18.72L225.63,363.75z"/>
	<path d="M235.87,368.68c-1.6,0-2.4,0.83-2.41,2.47v15.51h-1.86v-23.22h1.86v5.6c0.17-0.58,0.54-1.09,1.12-1.52
		c0.58-0.43,1.25-0.64,2.03-0.64c0.77,0,1.41,0.33,1.9,1c0.49,0.67,0.74,1.67,0.74,3.01v15.77h-1.87v-15.64
		c0-0.89-0.15-1.5-0.44-1.84C236.64,368.85,236.29,368.68,235.87,368.68z"/>
	<path d="M244.07,373.46c0-2.27,0.2-3.84,0.6-4.69c0.42-0.85,0.97-1.4,1.67-1.65c0.42-0.15,0.9-0.22,1.44-0.22
		c0.54,0,1.02,0.07,1.42,0.21c0.61,0.21,1.12,0.78,1.53,1.71c0.3,0.65,0.45,2.25,0.45,4.8v3.26h-5.25v3.93
		c0,2.01,0.14,3.25,0.43,3.7c0.29,0.46,0.71,0.68,1.27,0.68c0.56,0,0.96-0.18,1.18-0.55c0.23-0.37,0.37-0.84,0.42-1.41
		c0.05-0.58,0.08-1.36,0.08-2.35v-1.46h1.81v0.64c0,1.93-0.06,3.25-0.19,3.96c-0.32,1.92-1.34,2.88-3.08,2.88
		c-1.51,0-2.52-0.49-3.02-1.46c-0.34-0.64-0.55-1.38-0.64-2.2s-0.13-1.9-0.13-3.23V373.46z M249.32,375.24v-2.62
		c0-1.47-0.05-2.43-0.16-2.88c-0.18-0.76-0.64-1.15-1.37-1.15c-0.98,0-1.56,0.67-1.75,2.02c-0.07,0.55-0.11,1.21-0.11,2.01
		c0,0.08,0,0.16,0,0.23v2.38H249.32z"/>
	<path d="M257.87,369.05c0.17-0.58,0.53-1.09,1.1-1.52c0.57-0.43,1.24-0.64,2.01-0.64c0.77,0,1.41,0.33,1.91,1s0.75,1.67,0.75,3.01
		v15.77h-1.86v-15.92c0-0.76-0.16-1.3-0.49-1.63c-0.33-0.33-0.77-0.5-1.32-0.5c-1.41,0-2.11,0.73-2.11,2.18v15.88h-1.86v-19.53h1.86
		V369.05z"/>
	<path d="M274.41,363.45h1.87v23.22h-1.87V363.45z"/>
	<path d="M281.65,363.46h1.86v1.88h-1.86V363.46z M281.65,367.13h1.87v19.53h-1.87V367.13z"/>
	<path d="M289.69,366.98c0-1.2,0.2-2.1,0.61-2.7c0.41-0.6,1.09-0.91,2.06-0.91c0.67,0,1.23,0.08,1.68,0.23v1.58
		c-0.37-0.06-0.79-0.09-1.26-0.09c-0.47,0-0.79,0.13-0.96,0.38c-0.17,0.26-0.26,0.66-0.26,1.22v1.2h2.48v1.47h-2.48v17.3h-1.87
		v-17.3h-1.75v-1.47h1.75V366.98z"/>
	<path d="M297.45,373.46c0-2.27,0.2-3.84,0.6-4.69c0.42-0.85,0.97-1.4,1.67-1.65c0.42-0.15,0.9-0.22,1.44-0.22
		c0.54,0,1.02,0.07,1.42,0.21c0.61,0.21,1.12,0.78,1.53,1.71c0.3,0.65,0.45,2.25,0.45,4.8v3.26h-5.25v3.93
		c0,2.01,0.14,3.25,0.43,3.7c0.29,0.46,0.71,0.68,1.27,0.68c0.56,0,0.96-0.18,1.18-0.55c0.23-0.37,0.37-0.84,0.42-1.41
		c0.05-0.58,0.08-1.36,0.08-2.35v-1.46h1.81v0.64c0,1.93-0.06,3.25-0.19,3.96c-0.32,1.92-1.34,2.88-3.08,2.88
		c-1.51,0-2.52-0.49-3.02-1.46c-0.34-0.64-0.55-1.38-0.64-2.2c-0.09-0.83-0.13-1.9-0.13-3.23V373.46z M302.7,375.24v-2.62
		c0-1.47-0.05-2.43-0.16-2.88c-0.18-0.76-0.64-1.15-1.37-1.15c-0.98,0-1.56,0.67-1.75,2.02c-0.07,0.55-0.11,1.21-0.11,2.01
		c0,0.08,0,0.16,0,0.23v2.38H302.7z"/>
	<path d="M315.32,368.74c0.54-1.23,1.36-1.84,2.48-1.84s1.84,0.46,2.17,1.38v-1.15h1.86v18.27c0,1.93-0.69,3.24-2.07,3.92
		c-0.54,0.27-1.11,0.4-1.7,0.4c-0.59,0-1.21-0.1-1.85-0.31s-1.18-0.49-1.61-0.83l0.71-1.5c0.81,0.63,1.73,0.95,2.74,0.95
		c0.64,0,1.12-0.22,1.44-0.66c0.32-0.44,0.48-1.02,0.48-1.75v-2.15c-0.25,0.58-0.56,0.98-0.94,1.2c-0.38,0.22-0.82,0.33-1.34,0.33
		c-1.43,0-2.36-0.84-2.78-2.53c-0.26-1.06-0.39-2.41-0.39-4.05v-4.96C314.52,371.55,314.79,369.97,315.32,368.74z M319.97,372.99
		c0-1.95-0.15-3.17-0.44-3.66c-0.3-0.49-0.74-0.73-1.35-0.73c-0.6,0-1.03,0.23-1.3,0.7c-0.26,0.47-0.41,1.05-0.45,1.75
		c-0.04,0.69-0.06,1.33-0.06,1.91v5.74c0,1.68,0.14,2.87,0.42,3.57c0.28,0.71,0.8,1.06,1.57,1.06c0.4-0.01,0.71-0.13,0.92-0.35
		c0.46-0.49,0.69-1.93,0.69-4.32V372.99z"/>
	<path d="M327.05,363.46h1.86v1.88h-1.86V363.46z M327.05,367.13h1.87v19.53h-1.87V367.13z"/>
	<path d="M338.49,367.13h1.67l-2.72,19.53h-1.86l-2.73-19.53h1.67l1.47,11.41l0.5,4.75h0.12l0.5-4.77L338.49,367.13z"/>
	<path d="M343.68,373.46c0-2.27,0.2-3.84,0.6-4.69c0.42-0.85,0.97-1.4,1.67-1.65c0.41-0.15,0.89-0.22,1.44-0.22
		c0.54,0,1.02,0.07,1.42,0.21c0.61,0.21,1.12,0.78,1.53,1.71c0.3,0.65,0.45,2.25,0.45,4.8v3.26h-5.25v3.93
		c0,2.01,0.14,3.25,0.43,3.7c0.29,0.46,0.71,0.68,1.27,0.68s0.96-0.18,1.19-0.55c0.23-0.37,0.37-0.84,0.42-1.41
		c0.06-0.58,0.08-1.36,0.08-2.35v-1.46h1.81v0.64c0,1.93-0.06,3.25-0.19,3.96c-0.32,1.92-1.34,2.88-3.08,2.88
		c-1.51,0-2.52-0.49-3.02-1.46c-0.34-0.64-0.55-1.38-0.64-2.2c-0.09-0.83-0.13-1.9-0.13-3.23V373.46z M348.93,375.24v-2.62
		c0-1.47-0.05-2.43-0.16-2.88c-0.18-0.76-0.64-1.15-1.37-1.15c-0.98,0-1.56,0.67-1.75,2.02c-0.07,0.55-0.11,1.21-0.11,2.01
		c0,0.08,0,0.16,0,0.23v2.38H348.93z"/>
	<path d="M355.12,371.3c0-1.44,0.33-2.53,0.99-3.28c0.66-0.75,1.57-1.12,2.74-1.12c1.16,0,2.02,0.48,2.56,1.45
		c0.54,0.96,0.81,2.57,0.81,4.82v1.04h-1.93v-1.39c0-1.38-0.11-2.41-0.34-3.1c-0.23-0.68-0.63-1.03-1.2-1.03c-0.57,0-1,0.2-1.3,0.59
		c-0.3,0.4-0.44,1.08-0.44,2.05c0,0.03,0,0.05,0,0.08c0,1.52,0.68,2.96,2.03,4.34l0.96,0.98c1.65,1.73,2.48,3.63,2.48,5.72
		c0,1.39-0.29,2.49-0.86,3.29c-0.57,0.8-1.48,1.21-2.71,1.21c-1.23,0-2.15-0.44-2.76-1.33c-0.61-0.89-0.92-2.3-0.92-4.23v-1.68h1.91
		v1.34c0,2.75,0.57,4.13,1.72,4.13c0.62,0,1.05-0.21,1.31-0.63c0.26-0.42,0.39-1.15,0.39-2.21c0-1.57-0.65-3.05-1.95-4.43
		l-0.98-1.04C355.95,375.07,355.12,373.23,355.12,371.3z"/>
	<path d="M377.46,367.13h1.86l-2.98,19.49c-0.19,1.34-0.41,2.17-0.66,2.49c-0.25,0.32-0.53,0.51-0.84,0.57
		c-0.31,0.06-0.63,0.09-0.95,0.09h-1.55v-1.67h0.68c0.89,0,1.4-0.05,1.53-0.14c0.12-0.12,0.17-0.3,0.17-0.52
		c0-0.23-0.01-0.42-0.04-0.57c-0.02-0.16-0.06-0.39-0.1-0.69l-3.12-19.03h1.87l1.48,10.33l0.6,5.31h0.16l0.54-5.31L377.46,367.13z"
		/>
	<path d="M382.81,373.41c0-2.26,0.2-3.81,0.61-4.66c0.41-0.85,0.96-1.4,1.66-1.64c0.41-0.14,0.88-0.21,1.4-0.21
		c2.1,0,3.28,1.19,3.54,3.58c0.09,0.82,0.14,1.79,0.14,2.93v6.55c0,1.54-0.03,2.53-0.09,2.98c-0.06,0.45-0.12,0.84-0.18,1.17
		c-0.33,1.86-1.49,2.79-3.47,2.79c-0.81,0-1.45-0.17-1.93-0.52c-0.91-0.66-1.44-1.87-1.58-3.63c-0.06-0.78-0.09-1.71-0.09-2.79
		V373.41z M388.29,372.95c0-2.24-0.28-3.59-0.85-4.05c-0.25-0.2-0.55-0.3-0.9-0.3c-0.95,0-1.51,0.55-1.69,1.65
		c-0.13,0.69-0.19,1.58-0.19,2.7v7.68c0,1.92,0.16,3.16,0.47,3.72c0.31,0.56,0.81,0.84,1.49,0.84c0.68,0,1.13-0.4,1.35-1.19
		c0.22-0.79,0.32-1.92,0.32-3.37V372.95z"/>
	<path d="M396.84,382.86c0,1.5,0.63,2.25,1.9,2.25c0.61,0,1.11-0.21,1.48-0.64c0.37-0.43,0.55-1.01,0.55-1.75l-0.01-15.59h1.87
		v19.53h-1.86v-1.95c-0.16,0.59-0.5,1.11-1.02,1.55c-0.52,0.44-1.12,0.66-1.8,0.66s-1.35-0.29-1.99-0.88
		c-0.65-0.59-0.97-1.62-0.97-3.09v-15.82h1.86V382.86z"/>
	<path d="M413.52,363.45h1.87v23.22h-1.87V363.45z"/>
	<path d="M420.76,363.46h1.86v1.88h-1.86V363.46z M420.76,367.13h1.87v19.53h-1.87V367.13z"/>
	<path d="M439.25,370.7c0-1.35-0.57-2.02-1.71-2.02c-0.96,0-1.57,0.29-1.83,0.87c-0.12,0.26-0.19,0.59-0.22,0.98v16.13h-1.86V370.7
		c0-0.75-0.15-1.27-0.44-1.57c-0.3-0.3-0.74-0.45-1.35-0.45c-0.6,0-1.08,0.19-1.44,0.57c-0.36,0.38-0.54,0.94-0.54,1.67v15.74H428
		v-19.53h1.86v1.94c0.17-0.59,0.51-1.1,1.04-1.54c0.53-0.43,1.13-0.65,1.81-0.65c1.25,0,2.08,0.66,2.51,1.98
		c0.31-0.59,0.74-1.07,1.31-1.43c0.57-0.36,1.22-0.55,1.97-0.55s1.37,0.33,1.87,0.98c0.5,0.65,0.75,1.64,0.75,2.96v15.85h-1.87
		V370.7z"/>
	<path d="M445.94,373.46c0-2.27,0.2-3.84,0.6-4.69c0.41-0.85,0.97-1.4,1.67-1.65c0.41-0.15,0.9-0.22,1.44-0.22s1.02,0.07,1.42,0.21
		c0.61,0.21,1.12,0.78,1.53,1.71c0.3,0.65,0.45,2.25,0.45,4.8v3.26h-5.25v3.93c0,2.01,0.14,3.25,0.43,3.7
		c0.29,0.46,0.71,0.68,1.27,0.68s0.96-0.18,1.18-0.55c0.23-0.37,0.37-0.84,0.42-1.41c0.05-0.58,0.08-1.36,0.08-2.35v-1.46h1.81v0.64
		c0,1.93-0.06,3.25-0.19,3.96c-0.32,1.92-1.34,2.88-3.08,2.88c-1.51,0-2.52-0.49-3.02-1.46c-0.34-0.64-0.55-1.38-0.64-2.2
		c-0.09-0.83-0.13-1.9-0.13-3.23V373.46z M451.19,375.24v-2.62c0-1.47-0.05-2.43-0.16-2.88c-0.18-0.76-0.64-1.15-1.37-1.15
		c-0.98,0-1.56,0.67-1.75,2.02c-0.07,0.55-0.11,1.21-0.11,2.01c0,0.08,0,0.16,0,0.23v2.38H451.19z"/>
	<path d="M457.38,371.3c0-1.44,0.33-2.53,0.99-3.28c0.66-0.75,1.57-1.12,2.74-1.12c1.16,0,2.02,0.48,2.56,1.45
		c0.54,0.96,0.81,2.57,0.81,4.82v1.04h-1.93v-1.39c0-1.38-0.11-2.41-0.34-3.1c-0.23-0.68-0.63-1.03-1.2-1.03c-0.57,0-1,0.2-1.3,0.59
		c-0.3,0.4-0.44,1.08-0.44,2.05c0,0.03,0,0.05,0,0.08c0,1.52,0.68,2.96,2.03,4.34l0.96,0.98c1.65,1.73,2.48,3.63,2.48,5.72
		c0,1.39-0.29,2.49-0.86,3.29c-0.57,0.8-1.48,1.21-2.71,1.21c-1.23,0-2.15-0.44-2.76-1.33c-0.61-0.89-0.92-2.3-0.92-4.23v-1.68h1.91
		v1.34c0,2.75,0.57,4.13,1.72,4.13c0.62,0,1.05-0.21,1.31-0.63c0.26-0.42,0.39-1.15,0.39-2.21c0-1.57-0.65-3.05-1.95-4.43
		l-0.98-1.04C458.21,375.07,457.38,373.23,457.38,371.3z"/>
	<path d="M469.3,384.41h2.49v2.13l-1.3,4.67h-0.96l1.2-4.56h-1.43V384.41z"/>
	<path d="M490.81,367.13h1.65l-2.17,19.53h-1.84l-1.83-16.7l-2.16,16.7h-1.77l-2.19-19.53h1.71l1.12,11.55l0.3,4.05h0.15l0.37-4.06
		l1.57-11.54h1.58l1.71,11.12l0.5,4.48h0.12l0.25-4.51L490.81,367.13z"/>
	<path d="M496.13,373.46c0-2.27,0.2-3.84,0.6-4.69c0.41-0.85,0.97-1.4,1.67-1.65c0.41-0.15,0.9-0.22,1.44-0.22s1.02,0.07,1.42,0.21
		c0.61,0.21,1.12,0.78,1.53,1.71c0.3,0.65,0.45,2.25,0.45,4.8v3.26h-5.25v3.93c0,2.01,0.14,3.25,0.43,3.7
		c0.29,0.46,0.71,0.68,1.27,0.68c0.56,0,0.96-0.18,1.18-0.55c0.23-0.37,0.37-0.84,0.42-1.41c0.05-0.58,0.08-1.36,0.08-2.35v-1.46
		h1.81v0.64c0,1.93-0.06,3.25-0.19,3.96c-0.32,1.92-1.34,2.88-3.08,2.88c-1.51,0-2.52-0.49-3.02-1.46c-0.34-0.64-0.55-1.38-0.64-2.2
		c-0.09-0.83-0.13-1.9-0.13-3.23V373.46z M501.38,375.24v-2.62c0-1.47-0.05-2.43-0.16-2.88c-0.18-0.76-0.64-1.15-1.37-1.15
		c-0.98,0-1.56,0.67-1.75,2.02c-0.07,0.55-0.11,1.21-0.11,2.01c0,0.08,0,0.16,0,0.23v2.38H501.38z"/>
	<path d="M514,368.74c0.54-1.23,1.36-1.84,2.48-1.84s1.84,0.46,2.17,1.38v-1.15h1.86v18.27c0,1.93-0.69,3.24-2.07,3.92
		c-0.54,0.27-1.11,0.4-1.7,0.4c-0.59,0-1.21-0.1-1.85-0.31c-0.64-0.21-1.18-0.49-1.62-0.83l0.71-1.5c0.81,0.63,1.73,0.95,2.74,0.95
		c0.64,0,1.12-0.22,1.44-0.66c0.32-0.44,0.48-1.02,0.48-1.75v-2.15c-0.25,0.58-0.56,0.98-0.94,1.2c-0.38,0.22-0.83,0.33-1.34,0.33
		c-1.43,0-2.36-0.84-2.78-2.53c-0.26-1.06-0.39-2.41-0.39-4.05v-4.96C513.2,371.55,513.47,369.97,514,368.74z M518.65,372.99
		c0-1.95-0.15-3.17-0.44-3.66c-0.3-0.49-0.74-0.73-1.35-0.73c-0.6,0-1.04,0.23-1.3,0.7c-0.26,0.47-0.41,1.05-0.45,1.75
		c-0.04,0.69-0.06,1.33-0.06,1.91v5.74c0,1.68,0.14,2.87,0.42,3.57c0.28,0.71,0.8,1.06,1.56,1.06c0.4-0.01,0.71-0.13,0.92-0.35
		c0.46-0.49,0.69-1.93,0.69-4.32V372.99z"/>
	<path d="M525.73,363.46h1.86v1.88h-1.86V363.46z M525.73,367.13h1.87v19.53h-1.87V367.13z"/>
	<path d="M537.17,367.13h1.67l-2.72,19.53h-1.86l-2.73-19.53h1.67l1.47,11.41l0.5,4.75h0.12l0.5-4.77L537.17,367.13z"/>
	<path d="M542.36,373.46c0-2.27,0.2-3.84,0.6-4.69c0.41-0.85,0.97-1.4,1.67-1.65c0.41-0.15,0.9-0.22,1.44-0.22
		c0.54,0,1.02,0.07,1.42,0.21c0.61,0.21,1.12,0.78,1.53,1.71c0.3,0.65,0.45,2.25,0.45,4.8v3.26h-5.25v3.93
		c0,2.01,0.14,3.25,0.43,3.7c0.29,0.46,0.71,0.68,1.27,0.68s0.96-0.18,1.18-0.55c0.23-0.37,0.37-0.84,0.42-1.41
		c0.05-0.58,0.08-1.36,0.08-2.35v-1.46h1.81v0.64c0,1.93-0.06,3.25-0.19,3.96c-0.32,1.92-1.34,2.88-3.08,2.88
		c-1.51,0-2.52-0.49-3.02-1.46c-0.34-0.64-0.55-1.38-0.64-2.2c-0.09-0.83-0.13-1.9-0.13-3.23V373.46z M547.61,375.24v-2.62
		c0-1.47-0.05-2.43-0.16-2.88c-0.18-0.76-0.64-1.15-1.37-1.15c-0.98,0-1.56,0.67-1.75,2.02c-0.07,0.55-0.11,1.21-0.11,2.01
		c0,0.08,0,0.16,0,0.23v2.38H547.61z"/>
	<path d="M564.6,367.13h1.86l-2.98,19.49c-0.19,1.34-0.41,2.17-0.66,2.49c-0.25,0.32-0.53,0.51-0.84,0.57
		c-0.31,0.06-0.63,0.09-0.95,0.09h-1.55v-1.67h0.68c0.89,0,1.4-0.05,1.53-0.14c0.12-0.12,0.17-0.3,0.17-0.52
		c0-0.23-0.01-0.42-0.04-0.57c-0.02-0.16-0.06-0.39-0.1-0.69l-3.12-19.03h1.87l1.48,10.33l0.6,5.31h0.16l0.54-5.31L564.6,367.13z"/>
	<path d="M569.95,373.41c0-2.26,0.2-3.81,0.61-4.66c0.41-0.85,0.96-1.4,1.66-1.64c0.41-0.14,0.88-0.21,1.4-0.21
		c2.1,0,3.28,1.19,3.54,3.58c0.09,0.82,0.14,1.79,0.14,2.93v6.55c0,1.54-0.03,2.53-0.09,2.98c-0.06,0.45-0.12,0.84-0.18,1.17
		c-0.33,1.86-1.49,2.79-3.47,2.79c-0.81,0-1.45-0.17-1.93-0.52c-0.91-0.66-1.44-1.87-1.58-3.63c-0.06-0.78-0.09-1.71-0.09-2.79
		V373.41z M575.43,372.95c0-2.24-0.28-3.59-0.85-4.05c-0.25-0.2-0.55-0.3-0.9-0.3c-0.95,0-1.51,0.55-1.69,1.65
		c-0.13,0.69-0.19,1.58-0.19,2.7v7.68c0,1.92,0.16,3.16,0.47,3.72c0.31,0.56,0.81,0.84,1.49,0.84s1.13-0.4,1.35-1.19
		s0.32-1.92,0.32-3.37V372.95z"/>
	<path d="M583.98,382.86c0,1.5,0.63,2.25,1.9,2.25c0.61,0,1.11-0.21,1.48-0.64c0.37-0.43,0.55-1.01,0.55-1.75l-0.01-15.59h1.87
		v19.53h-1.86v-1.95c-0.16,0.59-0.5,1.11-1.02,1.55c-0.52,0.44-1.12,0.66-1.8,0.66c-0.68,0-1.35-0.29-1.99-0.88
		s-0.97-1.62-0.97-3.09v-15.82h1.86V382.86z"/>
	<path d="M605.73,363.45h1.87v23.22h-1.87v-1.48c-0.43,1.09-1.26,1.63-2.48,1.63c-1.39-0.01-2.27-0.87-2.64-2.59
		c-0.21-0.95-0.31-2.22-0.31-3.81v-6.86c0-2.62,0.3-4.38,0.9-5.29c0.6-0.9,1.45-1.35,2.55-1.35c0.42,0,0.82,0.16,1.18,0.47
		c0.36,0.32,0.63,0.7,0.8,1.15V363.45z M605.74,373.16c0-1.68-0.12-2.85-0.37-3.52c-0.24-0.67-0.72-1.01-1.43-1.01
		s-1.18,0.34-1.42,1.04c-0.24,0.69-0.36,1.89-0.36,3.59v7.73c0,1.79,0.14,2.93,0.41,3.44c0.27,0.5,0.67,0.75,1.2,0.75
		c0.53,0,0.91-0.1,1.14-0.31c0.23-0.2,0.42-0.55,0.59-1.03c0.16-0.48,0.24-1.43,0.24-2.83V373.16z"/>
	<path d="M612.49,373.46c0-2.27,0.2-3.84,0.6-4.69c0.41-0.85,0.97-1.4,1.67-1.65c0.41-0.15,0.9-0.22,1.44-0.22
		c0.54,0,1.02,0.07,1.42,0.21c0.61,0.21,1.12,0.78,1.53,1.71c0.3,0.65,0.45,2.25,0.45,4.8v3.26h-5.25v3.93
		c0,2.01,0.14,3.25,0.43,3.7c0.29,0.46,0.71,0.68,1.27,0.68s0.96-0.18,1.18-0.55c0.23-0.37,0.37-0.84,0.42-1.41
		c0.05-0.58,0.08-1.36,0.08-2.35v-1.46h1.81v0.64c0,1.93-0.06,3.25-0.19,3.96c-0.32,1.92-1.34,2.88-3.08,2.88
		c-1.51,0-2.52-0.49-3.02-1.46c-0.34-0.64-0.55-1.38-0.64-2.2s-0.13-1.9-0.13-3.23V373.46z M617.74,375.24v-2.62
		c0-1.47-0.05-2.43-0.16-2.88c-0.18-0.76-0.64-1.15-1.37-1.15c-0.98,0-1.56,0.67-1.75,2.02c-0.07,0.55-0.11,1.21-0.11,2.01
		c0,0.08,0,0.16,0,0.23v2.38H617.74z"/>
	<path d="M623.93,371.3c0-1.44,0.33-2.53,0.99-3.28c0.66-0.75,1.57-1.12,2.74-1.12c1.16,0,2.02,0.48,2.56,1.45
		c0.54,0.96,0.81,2.57,0.81,4.82v1.04h-1.93v-1.39c0-1.38-0.11-2.41-0.34-3.1c-0.23-0.68-0.63-1.03-1.2-1.03c-0.57,0-1,0.2-1.3,0.59
		c-0.3,0.4-0.44,1.08-0.44,2.05c0,0.03,0,0.05,0,0.08c0,1.52,0.68,2.96,2.03,4.34l0.96,0.98c1.65,1.73,2.48,3.63,2.48,5.72
		c0,1.39-0.29,2.49-0.86,3.29c-0.57,0.8-1.48,1.21-2.71,1.21c-1.23,0-2.15-0.44-2.76-1.33c-0.61-0.89-0.92-2.3-0.92-4.23v-1.68h1.91
		v1.34c0,2.75,0.57,4.13,1.72,4.13c0.62,0,1.05-0.21,1.31-0.63c0.26-0.42,0.39-1.15,0.39-2.21c0-1.57-0.65-3.05-1.95-4.43
		l-0.98-1.04C624.77,375.07,623.93,373.23,623.93,371.3z"/>
	<path d="M636,363.46h1.86v1.88H636V363.46z M636,367.13h1.87v19.53H636V367.13z"/>
	<path d="M643.61,368.74c0.54-1.23,1.36-1.84,2.48-1.84s1.84,0.46,2.17,1.38v-1.15h1.86v18.27c0,1.93-0.69,3.24-2.07,3.92
		c-0.54,0.27-1.11,0.4-1.7,0.4c-0.59,0-1.21-0.1-1.85-0.31c-0.64-0.21-1.18-0.49-1.62-0.83l0.71-1.5c0.81,0.63,1.73,0.95,2.74,0.95
		c0.64,0,1.12-0.22,1.44-0.66c0.32-0.44,0.48-1.02,0.48-1.75v-2.15c-0.25,0.58-0.56,0.98-0.94,1.2c-0.38,0.22-0.83,0.33-1.34,0.33
		c-1.43,0-2.36-0.84-2.78-2.53c-0.26-1.06-0.39-2.41-0.39-4.05v-4.96C642.81,371.55,643.08,369.97,643.61,368.74z M648.26,372.99
		c0-1.95-0.15-3.17-0.44-3.66c-0.3-0.49-0.74-0.73-1.35-0.73c-0.6,0-1.04,0.23-1.3,0.7c-0.26,0.47-0.41,1.05-0.45,1.75
		c-0.04,0.69-0.06,1.33-0.06,1.91v5.74c0,1.68,0.14,2.87,0.42,3.57c0.28,0.71,0.8,1.06,1.56,1.06c0.4-0.01,0.71-0.13,0.92-0.35
		c0.46-0.49,0.69-1.93,0.69-4.32V372.99z"/>
	<path d="M657.17,369.05c0.17-0.58,0.53-1.09,1.1-1.52c0.57-0.43,1.24-0.64,2.01-0.64c0.77,0,1.41,0.33,1.91,1
		c0.5,0.67,0.75,1.67,0.75,3.01v15.77h-1.86v-15.92c0-0.76-0.16-1.3-0.49-1.63c-0.33-0.33-0.77-0.5-1.32-0.5
		c-1.41,0-2.11,0.73-2.11,2.18v15.88h-1.86v-19.53h1.86V369.05z"/>
	<path d="M667.66,371.3c0-1.44,0.33-2.53,0.99-3.28c0.66-0.75,1.57-1.12,2.74-1.12c1.16,0,2.02,0.48,2.56,1.45
		c0.54,0.96,0.81,2.57,0.81,4.82v1.04h-1.93v-1.39c0-1.38-0.11-2.41-0.34-3.1c-0.23-0.68-0.63-1.03-1.2-1.03c-0.57,0-1,0.2-1.3,0.59
		s-0.44,1.08-0.44,2.05c0,0.03,0,0.05,0,0.08c0,1.52,0.68,2.96,2.03,4.34l0.96,0.98c1.65,1.73,2.48,3.63,2.48,5.72
		c0,1.39-0.29,2.49-0.86,3.29c-0.57,0.8-1.48,1.21-2.71,1.21c-1.23,0-2.15-0.44-2.76-1.33c-0.61-0.89-0.92-2.3-0.92-4.23v-1.68h1.91
		v1.34c0,2.75,0.57,4.13,1.72,4.13c0.62,0,1.05-0.21,1.31-0.63c0.26-0.42,0.39-1.15,0.39-2.21c0-1.57-0.65-3.05-1.95-4.43
		l-0.98-1.04C668.49,375.07,667.66,373.23,667.66,371.3z"/>
	<path d="M679.87,384.53h1.92v2.13h-1.92V384.53z"/>
</g>
<g id="ZwqRdE.tif">
	<g>
		<path class="st1" d="M83.14,183.02c40.67,0,81.35,0,122.02,0c0,81.99,0,163.97,0,245.96c-40.67,0-81.35,0-122.02,0
			C83.14,346.99,83.14,265.01,83.14,183.02z M88.01,293.87c-0.06,0-0.11,0-0.17,0.01c0.16,3.08,0.31,6.17,0.49,9.25
			c0.09,1.45,0.22,2.9,0.38,4.35c0.09,0.85,0.23,1.71,0.39,2.55c0.27,1.41,0.56,2.82,0.87,4.23c0.32,1.4,0.64,2.8,1.04,4.19
			c0.42,1.47,0.93,2.91,1.37,4.37c0.59,1.98,1.1,3.99,1.74,5.95c0.52,1.6,1.11,3.18,1.77,4.72c0.44,1.05,1.12,2,1.58,3.04
			c0.66,1.48,1.16,3.03,1.84,4.51c0.62,1.37,1.35,2.7,2.09,4.01c1.08,1.94,2.21,3.85,3.33,5.76c1.29,2.19,2.3,4.56,4.08,6.46
			c1.44,1.54,2.76,3.19,4.23,4.7c1.45,1.49,3.02,2.86,4.54,4.27c2.85,2.64,6.3,4.39,9.55,6.44c1.3,0.82,2.62,1.6,3.95,2.38
			c1.69,0.99,3.38,2,5.11,2.93c1.11,0.59,2.32,0.99,3.45,1.54c2.2,1.07,4.35,2.24,6.57,3.28c1.42,0.67,2.87,1.29,4.37,1.75
			c1.53,0.47,3.12,0.73,4.69,1.06c2.01,0.42,4.02,0.92,6.05,1.21c2.08,0.29,4.18,0.38,6.2,1.01c1.71,0.53,3.44,1,5.17,1.49
			c1.42,0.4,2.83,0.83,4.27,1.16c1.31,0.3,2.64,0.52,3.97,0.71c1.76,0.25,3.52,0.54,5.3,0.63c2.14,0.11,4.31-0.14,6.44,0.08
			c1.72,0.18,3.39,0.15,5.06-0.18c1.24-0.24,2.62-0.42,3.26-1.66c0.53-1.02,0.89-2.19,1.06-3.34c0.24-1.6,0.31-3.23,0.3-4.85
			c-0.01-2.7-0.14-5.41-0.22-8.11c-0.11-3.39-0.19-6.77-0.34-10.16c-0.07-1.57-0.24-3.13-0.39-4.69c-0.08-0.83-0.22-1.66-0.34-2.49
			c-0.3-2.19-0.63-4.38-0.87-6.57c-0.2-1.75-0.28-3.51-0.44-5.27c-0.09-0.97-0.21-1.94-0.36-2.9c-0.26-1.63-0.68-3.24-0.81-4.87
			c-0.25-3.33-0.34-6.67-0.51-10c-0.09-1.73-0.17-3.46-0.33-5.18c-0.19-2.09-0.46-4.18-0.71-6.27c-0.11-0.91-0.19-1.82-0.37-2.72
			c-0.37-1.83-0.9-3.64-1.19-5.49c-0.34-2.15-0.49-4.34-0.73-6.51c-0.1-0.94-0.23-1.87-0.36-2.81c-0.25-1.7-0.7-3.4-0.72-5.1
			c-0.03-2.54,0.21-5.08,0.38-7.61c0.08-1.1,0.29-2.18,0.44-3.27c0.31-2.34,0.65-4.68,0.91-7.03c0.17-1.56,0.2-3.13,0.31-4.69
			c0.13-1.94,0.26-3.89,0.39-5.83c0.01-0.14,0.01-0.27,0.03-0.41c0.3-2.07,0.68-4.14,0.88-6.23c0.2-2.13,0.23-4.27,0.34-6.41
			c0.11-2.35,0.18-4.71,0.35-7.06c0.22-2.94,0.53-5.88,0.8-8.82c0.03-0.38,0.03-0.77,0.14-1.13c0.59-2.07,0.89-4.18,0.91-6.33
			c0-0.71-0.01-1.42,0.05-2.12c0.19-2.21,0.54-4.42,0.59-6.63c0.1-5.59-0.05-11.17-0.9-16.72c-0.34-2.21-0.24-4.49-0.37-6.74
			c-0.13-2.22-0.3-4.43-0.46-6.64c-0.06-0.9-0.56-1.54-1.23-2.09c-1.17-0.96-2.61-1.35-4.04-1.47c-2.88-0.24-5.78-0.43-8.67-0.39
			c-4.52,0.06-9.06-0.38-13.57,0.31c-1.15,0.17-2.31,0.26-3.46,0.41c-0.69,0.09-1.38,0.22-2.07,0.36c-1.37,0.28-2.73,0.56-4.1,0.87
			c-1.1,0.25-2.21,0.47-3.27,0.82c-1.7,0.55-3.36,1.21-5.04,1.81c-1.41,0.5-2.86,0.89-4.22,1.49c-1.68,0.75-3.26,1.74-4.92,2.52
			c-1.13,0.53-2.32,0.92-3.51,1.33c-2.82,0.98-5.3,2.54-7.55,4.46c-1.26,1.08-2.36,2.37-3.55,3.54c-1.08,1.06-2.2,2.07-3.28,3.13
			c-1.92,1.9-3.86,3.78-5.7,5.76c-1.21,1.3-2.17,2.83-3.38,4.13c-2.1,2.27-4.1,4.64-6.17,6.94c-1.84,2.05-3.57,4.15-4.88,6.56
			c-1.18,2.19-2.19,4.48-3.19,6.76c-1.06,2.42-2,4.89-3.05,7.32c-1.07,2.47-2.16,4.94-3.32,7.37c-1.17,2.44-2.27,4.9-2.92,7.55
			c-0.33,1.32-0.84,2.59-1.26,3.89c-0.24,0.74-0.49,1.47-0.65,2.23c-0.18,0.84-0.21,1.71-0.39,2.55c-0.28,1.27-0.65,2.53-0.95,3.8
			c-0.11,0.5-0.09,1.03-0.18,1.53c-0.28,1.42-0.69,2.81-0.86,4.24c-0.23,1.9-0.27,3.83-0.39,5.74c-0.01,0.16-0.01,0.33-0.03,0.49
			c-0.2,1.63-0.5,3.25-0.58,4.89C87.94,289.9,88.01,291.89,88.01,293.87z"/>
		<path d="M88.01,293.87c0-1.99-0.08-3.98,0.02-5.96c0.08-1.63,0.38-3.26,0.58-4.89c0.02-0.16,0.02-0.33,0.03-0.49
			c0.12-1.92,0.17-3.84,0.39-5.74c0.17-1.43,0.58-2.82,0.86-4.24c0.1-0.5,0.07-1.03,0.18-1.53c0.29-1.27,0.67-2.53,0.95-3.8
			c0.18-0.84,0.21-1.71,0.39-2.55c0.16-0.75,0.42-1.49,0.65-2.23c0.42-1.3,0.93-2.57,1.26-3.89c0.65-2.65,1.75-5.1,2.92-7.55
			c1.16-2.43,2.25-4.9,3.32-7.37c1.05-2.43,1.99-4.9,3.05-7.32c1-2.28,2.01-4.57,3.19-6.76c1.3-2.41,3.03-4.51,4.88-6.56
			c2.07-2.3,4.06-4.67,6.17-6.94c1.21-1.3,2.17-2.83,3.38-4.13c1.84-1.98,3.78-3.86,5.7-5.76c1.07-1.06,2.2-2.08,3.28-3.13
			c1.19-1.17,2.28-2.45,3.55-3.54c2.24-1.92,4.73-3.48,7.55-4.46c1.18-0.41,2.38-0.8,3.51-1.33c1.67-0.79,3.24-1.77,4.92-2.52
			c1.36-0.61,2.81-0.99,4.22-1.49c1.68-0.6,3.34-1.25,5.04-1.81c1.07-0.35,2.18-0.57,3.27-0.82c1.36-0.31,2.73-0.59,4.1-0.87
			c0.69-0.14,1.37-0.27,2.07-0.36c1.15-0.15,2.31-0.24,3.46-0.41c4.51-0.68,9.05-0.24,13.57-0.31c2.89-0.04,5.79,0.15,8.67,0.39
			c1.43,0.12,2.86,0.52,4.04,1.47c0.67,0.54,1.17,1.19,1.23,2.09c0.16,2.21,0.33,4.43,0.46,6.64c0.13,2.25,0.03,4.52,0.37,6.74
			c0.86,5.55,1.01,11.13,0.9,16.72c-0.04,2.21-0.4,4.42-0.59,6.63c-0.06,0.7-0.05,1.41-0.05,2.12c-0.01,2.15-0.32,4.26-0.91,6.33
			c-0.1,0.36-0.1,0.75-0.14,1.13c-0.27,2.94-0.58,5.87-0.8,8.82c-0.17,2.35-0.24,4.7-0.35,7.06c-0.1,2.14-0.13,4.28-0.34,6.41
			c-0.2,2.08-0.58,4.15-0.88,6.23c-0.02,0.13-0.02,0.27-0.03,0.41c-0.13,1.94-0.26,3.89-0.39,5.83c-0.1,1.56-0.14,3.13-0.31,4.69
			c-0.25,2.35-0.6,4.69-0.91,7.03c-0.14,1.09-0.36,2.18-0.44,3.27c-0.18,2.54-0.42,5.08-0.38,7.61c0.02,1.7,0.47,3.4,0.72,5.1
			c0.14,0.93,0.26,1.87,0.36,2.81c0.24,2.17,0.39,4.35,0.73,6.51c0.29,1.85,0.82,3.65,1.19,5.49c0.18,0.89,0.26,1.81,0.37,2.72
			c0.25,2.09,0.51,4.18,0.71,6.27c0.16,1.72,0.25,3.45,0.33,5.18c0.17,3.33,0.26,6.67,0.51,10c0.12,1.63,0.55,3.25,0.81,4.87
			c0.15,0.96,0.27,1.93,0.36,2.9c0.16,1.75,0.24,3.52,0.44,5.27c0.25,2.2,0.58,4.38,0.87,6.57c0.11,0.83,0.26,1.66,0.34,2.49
			c0.15,1.56,0.32,3.12,0.39,4.69c0.14,3.38,0.23,6.77,0.34,10.16c0.08,2.7,0.21,5.41,0.22,8.11c0.01,1.62-0.06,3.25-0.3,4.85
			c-0.17,1.14-0.53,2.31-1.06,3.34c-0.64,1.24-2.02,1.42-3.26,1.66c-1.68,0.33-3.34,0.35-5.06,0.18c-2.12-0.22-4.29,0.03-6.44-0.08
			c-1.77-0.09-3.54-0.37-5.3-0.63c-1.33-0.19-2.66-0.41-3.97-0.71c-1.44-0.33-2.85-0.76-4.27-1.16c-1.73-0.49-3.46-0.96-5.17-1.49
			c-2.03-0.63-4.13-0.71-6.2-1.01c-2.03-0.29-4.04-0.78-6.05-1.21c-1.57-0.33-3.16-0.59-4.69-1.06c-1.49-0.46-2.95-1.08-4.37-1.75
			c-2.21-1.04-4.37-2.21-6.57-3.28c-1.13-0.55-2.34-0.96-3.45-1.54c-1.73-0.92-3.42-1.93-5.11-2.93c-1.33-0.78-2.65-1.56-3.95-2.38
			c-3.25-2.04-6.71-3.79-9.55-6.44c-1.52-1.41-3.09-2.79-4.54-4.27c-1.47-1.51-2.79-3.17-4.23-4.7c-1.78-1.9-2.79-4.27-4.08-6.46
			c-1.13-1.91-2.25-3.83-3.33-5.76c-0.74-1.32-1.46-2.64-2.09-4.01c-0.67-1.47-1.18-3.02-1.84-4.51c-0.46-1.04-1.14-1.99-1.58-3.04
			c-0.66-1.55-1.25-3.13-1.77-4.72c-0.63-1.97-1.15-3.97-1.74-5.95c-0.44-1.46-0.95-2.9-1.37-4.37c-0.39-1.38-0.72-2.79-1.04-4.19
			c-0.32-1.4-0.6-2.81-0.87-4.23c-0.16-0.84-0.3-1.7-0.39-2.55c-0.15-1.45-0.29-2.9-0.38-4.35c-0.18-3.08-0.33-6.17-0.49-9.25
			C87.9,293.88,87.96,293.87,88.01,293.87z M197.57,387.48c0.14-2.14,0.27-4.24,0.41-6.34c0.07-1.02,0.26-2.05,0.2-3.06
			c-0.09-1.56-0.41-3.1-0.5-4.66c-0.17-3.06-0.22-6.13-0.37-9.19c-0.06-1.16-0.22-2.32-0.35-3.47c-0.11-0.99-0.23-1.99-0.36-2.98
			c-0.39-2.94-0.83-5.88-1.17-8.83c-0.22-1.88-0.3-3.78-0.44-5.68c-0.01-0.13-0.05-0.27-0.07-0.4c-0.29-1.78-0.67-3.56-0.84-5.36
			c-0.23-2.48-0.34-4.98-0.44-7.47c-0.08-2.17-0.04-4.35-0.11-6.52c-0.04-1.02-0.21-2.04-0.34-3.06c-0.19-1.46-0.41-2.92-0.61-4.38
			c-0.14-1.01-0.2-2.04-0.4-3.04c-0.36-1.8-0.85-3.58-1.18-5.39c-0.3-1.61-0.52-3.24-0.65-4.87c-0.18-2.36-0.62-4.68-0.93-7.02
			c-0.26-2.03-0.56-4.07-0.38-6.2c0.24-2.96,0.42-5.93,1-8.84c0.38-1.92,0.64-3.83,0.61-5.78c-0.01-0.46-0.02-0.93,0.02-1.39
			c0.19-2.25,0.4-4.5,0.59-6.75c0.13-1.51,0.22-3.02,0.36-4.52c0.09-0.91,0.24-1.81,0.36-2.71c0.2-1.49,0.49-2.98,0.57-4.48
			c0.18-3.52,0.23-7.05,0.38-10.57c0.04-0.94,0.25-1.87,0.39-2.8c0.18-1.25,0.4-2.49,0.55-3.74c0.18-1.47,0.28-2.96,0.47-4.43
			c0.22-1.76,0.52-3.52,0.71-5.28c0.17-1.53,0.24-3.08,0.35-4.62c0.01-0.16,0.05-0.32,0.06-0.48c0.16-2.21,0.38-4.42,0.47-6.64
			c0.05-1.21-0.15-2.43-0.22-3.65c-0.14-2.65-0.06-5.34-0.46-7.95c-0.39-2.59-0.56-5.16-0.6-7.77c-0.03-2.08-0.19-4.16-0.3-6.24
			c-0.01-0.18-0.09-0.36-0.15-0.53c-0.31-1.02-1.3-0.84-1.97-0.9c-2.64-0.23-5.3-0.38-7.95-0.4c-2.98-0.01-5.97,0.08-8.94,0.26
			c-2.47,0.15-4.95,0.43-7.4,0.79c-1.96,0.29-3.91,0.75-5.84,1.21c-1.35,0.32-2.68,0.72-3.99,1.17c-1.75,0.61-3.48,1.27-5.2,1.96
			c-2.14,0.87-4.26,1.8-6.39,2.72c-1.37,0.59-2.69,1.41-4.12,1.75c-2.19,0.52-4.06,1.57-5.68,3.01c-2.43,2.16-4.74,4.45-7.06,6.73
			c-1.86,1.84-3.65,3.76-5.48,5.64c-0.06,0.06-0.14,0.09-0.19,0.15c-1.07,1.29-2.12,2.6-3.2,3.87c-0.63,0.73-1.32,1.41-1.97,2.13
			c-1.81,2.02-3.66,4-5.38,6.09c-1.21,1.47-2.46,2.98-3.32,4.66c-1.6,3.12-2.93,6.39-4.37,9.59c-0.68,1.5-1.36,3.01-2.03,4.51
			c-0.89,2.01-1.71,4.05-2.67,6.03c-1.25,2.58-2.49,5.15-3.29,7.92c-0.38,1.31-0.86,2.6-1.28,3.9c-0.22,0.69-0.47,1.37-0.63,2.07
			c-0.21,0.86-0.32,1.75-0.51,2.61c-0.28,1.26-0.62,2.5-0.89,3.75c-0.27,1.23-0.49,2.47-0.72,3.7c-0.31,1.63-0.67,3.26-0.9,4.9
			c-0.28,1.91-0.47,3.84-0.65,5.76c-0.16,1.7-0.33,3.4-0.33,5.1c0.01,3.11,0.18,6.23,0.23,9.34c0.05,2.59,0.17,5.17,0.67,7.73
			c0.3,1.55,0.46,3.13,0.72,4.69c0.11,0.65,0.31,1.29,0.5,1.93c0.4,1.36,0.87,2.69,1.23,4.06c0.49,1.87,0.8,3.8,1.4,5.64
			c0.82,2.53,1.72,5.05,2.78,7.49c1.47,3.35,3.12,6.61,4.71,9.91c0.67,1.39,1.33,2.78,2.1,4.11c0.81,1.41,1.86,2.69,2.59,4.14
			c1.13,2.24,2.61,4.21,4.25,6.06c1.7,1.91,3.43,3.81,5.3,5.55c2.62,2.43,5.3,4.79,8.47,6.55c2.94,1.63,5.73,3.55,8.63,5.27
			c1.61,0.96,3.29,1.8,4.98,2.62c2.81,1.36,5.6,2.79,8.49,3.95c2.48,0.99,5.06,1.73,7.64,2.45c1.62,0.45,3.3,0.8,4.97,0.95
			c2.66,0.24,5.29,0.52,7.85,1.33c2.01,0.64,4.09,1.08,6.09,1.77c2.63,0.9,5.34,1.41,8.07,1.5c3.19,0.11,6.4-0.13,9.59-0.27
			C194.6,387.79,196.07,387.61,197.57,387.48z"/>
		<path class="st2" d="M197.57,387.48c-1.5,0.13-2.97,0.31-4.46,0.37c-3.2,0.14-6.4,0.38-9.59,0.27c-2.73-0.09-5.44-0.6-8.07-1.5
			c-2-0.69-4.07-1.13-6.09-1.77c-2.56-0.81-5.19-1.09-7.85-1.33c-1.67-0.15-3.35-0.5-4.97-0.95c-2.58-0.72-5.16-1.45-7.64-2.45
			c-2.89-1.16-5.68-2.59-8.49-3.95c-1.69-0.82-3.37-1.67-4.98-2.62c-2.9-1.72-5.68-3.64-8.63-5.27c-3.17-1.76-5.86-4.12-8.47-6.55
			c-1.87-1.74-3.6-3.64-5.3-5.55c-1.65-1.85-3.12-3.82-4.25-6.06c-0.73-1.45-1.78-2.73-2.59-4.14c-0.77-1.33-1.43-2.73-2.1-4.11
			c-1.59-3.29-3.24-6.56-4.71-9.91c-1.07-2.44-1.97-4.95-2.78-7.49c-0.59-1.84-0.9-3.77-1.4-5.64c-0.36-1.37-0.82-2.71-1.23-4.06
			c-0.19-0.64-0.39-1.28-0.5-1.93c-0.26-1.56-0.42-3.14-0.72-4.69c-0.5-2.56-0.63-5.14-0.67-7.73c-0.06-3.11-0.22-6.23-0.23-9.34
			c-0.01-1.7,0.17-3.41,0.33-5.1c0.18-1.93,0.37-3.85,0.65-5.76c0.24-1.64,0.59-3.27,0.9-4.9c0.23-1.24,0.46-2.47,0.72-3.7
			c0.27-1.26,0.61-2.5,0.89-3.75c0.19-0.86,0.31-1.75,0.51-2.61c0.17-0.7,0.41-1.38,0.63-2.07c0.43-1.3,0.91-2.58,1.28-3.9
			c0.8-2.77,2.03-5.34,3.29-7.92c0.96-1.98,1.78-4.02,2.67-6.03c0.67-1.51,1.35-3.01,2.03-4.51c1.44-3.2,2.77-6.47,4.37-9.59
			c0.86-1.68,2.11-3.19,3.32-4.66c1.73-2.09,3.58-4.07,5.38-6.09c0.64-0.72,1.34-1.39,1.97-2.13c1.09-1.27,2.13-2.58,3.2-3.87
			c0.05-0.06,0.13-0.09,0.19-0.15c1.82-1.88,3.61-3.8,5.48-5.64c2.31-2.29,4.63-4.58,7.06-6.73c1.62-1.44,3.49-2.49,5.68-3.01
			c1.43-0.34,2.75-1.16,4.12-1.75c2.13-0.91,4.25-1.84,6.39-2.72c1.72-0.7,3.45-1.36,5.2-1.96c1.31-0.45,2.65-0.85,3.99-1.17
			c1.93-0.46,3.88-0.92,5.84-1.21c2.45-0.36,4.93-0.64,7.4-0.79c2.98-0.18,5.96-0.28,8.94-0.26c2.65,0.01,5.3,0.17,7.95,0.4
			c0.67,0.06,1.66-0.12,1.97,0.9c0.05,0.18,0.14,0.35,0.15,0.53c0.11,2.08,0.27,4.16,0.3,6.24c0.04,2.6,0.2,5.18,0.6,7.77
			c0.4,2.61,0.32,5.3,0.46,7.95c0.06,1.22,0.26,2.44,0.22,3.65c-0.08,2.22-0.3,4.43-0.47,6.64c-0.01,0.16-0.05,0.32-0.06,0.48
			c-0.11,1.54-0.18,3.09-0.35,4.62c-0.19,1.77-0.49,3.52-0.71,5.28c-0.18,1.47-0.29,2.96-0.47,4.43c-0.15,1.25-0.37,2.5-0.55,3.74
			c-0.14,0.93-0.35,1.86-0.39,2.8c-0.15,3.52-0.2,7.05-0.38,10.57c-0.08,1.5-0.37,2.98-0.57,4.48c-0.12,0.91-0.27,1.81-0.36,2.71
			c-0.14,1.5-0.23,3.01-0.36,4.52c-0.19,2.25-0.4,4.5-0.59,6.75c-0.04,0.46-0.02,0.92-0.02,1.39c0.03,1.95-0.23,3.86-0.61,5.78
			c-0.58,2.91-0.76,5.88-1,8.84c-0.17,2.12,0.12,4.17,0.38,6.2c0.3,2.34,0.75,4.66,0.93,7.02c0.13,1.63,0.36,3.26,0.65,4.87
			c0.33,1.81,0.82,3.59,1.18,5.39c0.2,1,0.26,2.03,0.4,3.04c0.2,1.46,0.42,2.92,0.61,4.38c0.13,1.02,0.31,2.03,0.34,3.06
			c0.07,2.17,0.03,4.35,0.11,6.52c0.09,2.49,0.2,4.99,0.44,7.47c0.17,1.8,0.55,3.57,0.84,5.36c0.02,0.13,0.06,0.27,0.07,0.4
			c0.14,1.89,0.22,3.79,0.44,5.68c0.34,2.95,0.78,5.89,1.17,8.83c0.13,0.99,0.25,1.98,0.36,2.98c0.13,1.16,0.3,2.31,0.35,3.47
			c0.15,3.06,0.2,6.13,0.37,9.19c0.09,1.56,0.41,3.1,0.5,4.66c0.06,1.01-0.13,2.04-0.2,3.06
			C197.84,383.24,197.71,385.34,197.57,387.48z M191.29,383.72c0-0.03,0-0.05,0-0.08c0.81,0,1.63-0.06,2.44,0.02
			c0.89,0.08,1.51-0.4,1.83-1.05c0.4-0.82,0.76-1.75,0.77-2.64c0.02-2.18-0.11-4.37-0.29-6.55c-0.11-1.3-0.37-2.6-0.63-3.88
			c-0.4-1.98-0.85-3.96-1.3-5.94c-0.39-1.72-0.82-3.42-1.18-5.15c-0.34-1.65-0.74-3.3-0.89-4.96c-0.22-2.36-0.3-4.75-0.34-7.12
			c-0.14-6.89-0.21-13.78-0.36-20.67c-0.03-1.54-0.19-3.08-0.43-4.6c-0.21-1.33-0.62-2.63-0.95-3.93c-0.32-1.25-0.56-2.54-1.02-3.74
			c-0.9-2.3-1.63-4.61-1.73-7.11c-0.03-0.7-0.33-1.4-0.49-2.1c-0.38-1.61-0.79-3.21-1.13-4.82c-0.16-0.79-0.2-1.6-0.27-2.4
			c-0.03-0.38-0.01-0.76,0.03-1.14c0.07-0.62,0.21-1.23,0.24-1.84c0.05-1.11-0.03-2.23,0.07-3.34c0.15-1.82,0.4-3.64,0.6-5.45
			c0.03-0.27-0.02-0.56,0.06-0.81c0.68-2.06,1.39-4.1,2.08-6.16c0.44-1.33,1.04-2.64,1.25-4c0.35-2.29,0.54-4.62,0.62-6.94
			c0.11-3.04,0.06-6.09,0.09-9.14c0.01-1.03,0-2.07,0.08-3.1c0.15-1.86,0.42-3.71,0.52-5.57c0.05-0.93-0.22-1.88-0.22-2.82
			c0.01-1.08,0.19-2.16,0.24-3.24c0.14-3.44,0.25-6.88,0.37-10.31c0-0.14,0-0.27,0.02-0.41c0.41-2.1,0.9-4.19,1.21-6.3
			c0.24-1.68,0.24-3.39,0.38-5.08c0.08-0.99,0.22-1.98,0.35-2.97c0.18-1.41,0.54-2.81,0.55-4.22c0.01-3.41-0.15-6.82-0.24-10.23
			c-0.04-1.36-0.05-2.72-0.1-4.08c-0.05-1.4-0.23-2.8-0.17-4.2c0.04-1.07-0.44-1.91-1.49-1.86c-1.91,0.09-3.82,0.27-5.73,0.44
			c-0.59,0.05-1.17,0.2-1.76,0.29c-1.3,0.2-2.59,0.45-3.89,0.55c-1.35,0.11-2.72-0.01-4.07,0.14c-1.87,0.2-3.72,0.6-5.59,0.84
			c-1.36,0.17-2.75,0.21-4.12,0.34c-2.15,0.21-4.29,0.43-6.44,0.66c-2.2,0.23-4.35,0.67-6.38,1.63c-2.11,1-4.33,1.79-6.37,2.9
			c-2.82,1.53-5.2,3.66-7.45,5.94c-0.19,0.19-0.31,0.45-0.52,0.6c-1.34,1.01-2.74,1.95-4.03,3.02c-1.28,1.06-2.57,2.14-3.66,3.39
			c-1.75,2.01-3.91,3.38-6.26,4.5c-1.09,0.52-2.1,1.12-2.71,2.17c-0.86,1.47-1.63,2.99-2.44,4.49c-1.24,2.29-2.49,4.59-3.74,6.87
			c-0.51,0.93-1.16,1.8-1.58,2.77c-0.91,2.1-1.6,4.3-2.6,6.35c-1.46,2.98-3.09,5.88-4.69,8.79c-1.57,2.85-3.37,5.58-4.56,8.63
			c-0.54,1.38-0.98,2.79-1.41,4.21c-0.4,1.31-0.74,2.63-1.08,3.95c-0.52,1.96-1.08,3.9-1.51,5.88c-0.37,1.73-0.55,3.5-0.86,5.24
			c-0.33,1.88-0.45,3.74-0.34,5.66c0.13,2.29,0.6,4.51,1,6.75c0.45,2.54,0.81,5.1,1.13,7.66c0.2,1.63,0.25,3.29,0.34,4.93
			c0.12,2.35,0.21,4.7,0.33,7.05c0.09,1.75,0.18,3.51,0.33,5.26c0.18,2.06,0.45,4.12,0.64,6.18c0.25,2.74,1.39,5.2,2.39,7.69
			c1.02,2.53,2.25,4.97,3.39,7.44c0.63,1.38,1.18,2.81,1.94,4.11c1.04,1.8,2.18,3.54,3.38,5.23c1.46,2.05,2.99,4.05,4.55,6.03
			c1.39,1.76,2.86,3.46,4.3,5.18c2.32,2.77,4.68,5.49,7.42,7.88c2.29,2,4.66,3.84,7.31,5.28c3.13,1.7,6.36,3.25,9.57,4.79
			c3.13,1.5,6.19,3.14,9.54,4.17c2.5,0.76,4.99,1.26,7.61,1.27c3.98,0.01,7.96,0.16,11.94,0.29c0.74,0.02,1.49,0.22,2.22,0.4
			c1.31,0.32,2.6,0.73,3.92,1.02c1.28,0.28,2.59,0.5,3.89,0.64C187.24,383.46,189.27,383.57,191.29,383.72z"/>
		<path d="M191.29,383.72c-2.02-0.15-4.05-0.25-6.07-0.46c-1.31-0.13-2.61-0.36-3.89-0.64c-1.32-0.28-2.61-0.7-3.92-1.02
			c-0.73-0.18-1.48-0.37-2.22-0.4c-3.98-0.13-7.96-0.28-11.94-0.29c-2.62-0.01-5.12-0.51-7.61-1.27c-3.35-1.02-6.41-2.66-9.54-4.17
			c-3.22-1.55-6.44-3.09-9.57-4.79c-2.65-1.44-5.02-3.28-7.31-5.28c-2.75-2.4-5.1-5.11-7.42-7.88c-1.44-1.72-2.91-3.42-4.3-5.18
			c-1.56-1.97-3.09-3.97-4.55-6.03c-1.2-1.69-2.34-3.44-3.38-5.23c-0.76-1.31-1.3-2.74-1.94-4.11c-1.14-2.48-2.37-4.92-3.39-7.44
			c-1.01-2.49-2.15-4.95-2.39-7.69c-0.19-2.06-0.46-4.12-0.64-6.18c-0.15-1.75-0.24-3.5-0.33-5.26c-0.12-2.35-0.21-4.7-0.33-7.05
			c-0.09-1.65-0.14-3.3-0.34-4.93c-0.31-2.56-0.67-5.12-1.13-7.66c-0.4-2.24-0.87-4.46-1-6.75c-0.11-1.92,0.01-3.78,0.34-5.66
			c0.31-1.74,0.49-3.51,0.86-5.24c0.43-1.98,0.99-3.92,1.51-5.88c0.35-1.32,0.69-2.64,1.08-3.95c0.43-1.41,0.87-2.83,1.41-4.21
			c1.19-3.05,2.99-5.78,4.56-8.63c1.6-2.91,3.23-5.81,4.69-8.79c1-2.05,1.68-4.25,2.6-6.35c0.42-0.97,1.07-1.84,1.58-2.77
			c1.26-2.28,2.5-4.58,3.74-6.87c0.81-1.5,1.58-3.02,2.44-4.49c0.62-1.05,1.62-1.65,2.71-2.17c2.35-1.12,4.51-2.49,6.26-4.5
			c1.08-1.25,2.38-2.33,3.66-3.39c1.29-1.07,2.69-2.01,4.03-3.02c0.21-0.16,0.33-0.41,0.52-0.6c2.24-2.28,4.63-4.41,7.45-5.94
			c2.05-1.11,4.26-1.9,6.37-2.9c2.03-0.96,4.17-1.39,6.38-1.63c2.15-0.23,4.29-0.46,6.44-0.66c1.37-0.13,2.75-0.17,4.12-0.34
			c1.87-0.24,3.72-0.63,5.59-0.84c1.35-0.15,2.72-0.03,4.07-0.14c1.3-0.11,2.6-0.36,3.89-0.55c0.59-0.09,1.17-0.24,1.76-0.29
			c1.91-0.17,3.82-0.35,5.73-0.44c1.05-0.05,1.54,0.8,1.49,1.86c-0.05,1.39,0.12,2.8,0.17,4.2c0.05,1.36,0.07,2.72,0.1,4.08
			c0.09,3.41,0.25,6.82,0.24,10.23c0,1.41-0.36,2.81-0.55,4.22c-0.13,0.99-0.27,1.97-0.35,2.97c-0.14,1.69-0.14,3.41-0.38,5.08
			c-0.31,2.11-0.8,4.2-1.21,6.3c-0.03,0.13-0.02,0.27-0.02,0.41c-0.12,3.44-0.23,6.88-0.37,10.31c-0.04,1.08-0.23,2.16-0.24,3.24
			c0,0.94,0.27,1.89,0.22,2.82c-0.1,1.86-0.37,3.71-0.52,5.57c-0.08,1.03-0.07,2.06-0.08,3.1c-0.03,3.05,0.03,6.09-0.09,9.14
			c-0.09,2.32-0.27,4.65-0.62,6.94c-0.21,1.37-0.8,2.67-1.25,4c-0.69,2.06-1.4,4.1-2.08,6.16c-0.08,0.25-0.03,0.54-0.06,0.81
			c-0.2,1.82-0.45,3.63-0.6,5.45c-0.09,1.11-0.02,2.23-0.07,3.34c-0.03,0.62-0.18,1.23-0.24,1.84c-0.04,0.38-0.06,0.76-0.03,1.14
			c0.06,0.8,0.11,1.62,0.27,2.4c0.34,1.62,0.75,3.22,1.13,4.82c0.17,0.7,0.47,1.39,0.49,2.1c0.1,2.49,0.83,4.81,1.73,7.11
			c0.47,1.2,0.7,2.49,1.02,3.74c0.34,1.31,0.74,2.6,0.95,3.93c0.24,1.52,0.39,3.06,0.43,4.6c0.15,6.89,0.22,13.78,0.36,20.67
			c0.05,2.38,0.12,4.76,0.34,7.12c0.16,1.67,0.55,3.32,0.89,4.96c0.36,1.72,0.8,3.43,1.18,5.15c0.45,1.98,0.9,3.95,1.3,5.94
			c0.26,1.28,0.53,2.58,0.63,3.88c0.18,2.18,0.31,4.37,0.29,6.55c-0.01,0.89-0.37,1.83-0.77,2.64c-0.32,0.66-0.94,1.13-1.83,1.05
			c-0.81-0.07-1.63-0.02-2.44-0.02C191.29,383.66,191.29,383.69,191.29,383.72z M190.5,196.63c-1.61,0.13-3.22,0.21-4.82,0.41
			c-1.14,0.14-2.25,0.53-3.39,0.65c-1.66,0.18-3.34,0.25-5.02,0.31c-2.8,0.09-5.6,0.2-8.38,0.67c-1.83,0.31-3.72,0.25-5.58,0.38
			c-1.54,0.1-3.08,0.2-4.61,0.37c-0.68,0.08-1.37,0.27-2.02,0.51c-1.79,0.68-3.56,1.45-5.35,2.14c-2.74,1.05-5,2.81-7.16,4.73
			c-1.37,1.22-2.73,2.45-4.13,3.64c-1.44,1.23-2.96,2.38-4.38,3.64c-1.03,0.91-1.9,1.98-2.93,2.89c-0.91,0.8-1.89,1.57-2.94,2.19
			c-1.94,1.13-4.15,1.85-5.45,3.88c-0.92,1.42-1.87,2.82-2.73,4.28c-1.21,2.03-2.34,4.11-3.51,6.16c-0.3,0.53-0.72,1.02-0.95,1.58
			c-0.92,2.16-1.77,4.35-2.69,6.52c-0.64,1.51-1.28,3.03-2.02,4.5c-1.42,2.8-3.49,5.22-4.72,8.15c-0.61,1.45-1.52,2.77-2.23,4.17
			c-0.88,1.72-1.63,3.47-1.93,5.42c-0.17,1.17-0.61,2.3-0.92,3.45c-0.24,0.9-0.51,1.79-0.71,2.7c-0.27,1.25-0.47,2.52-0.74,3.78
			c-0.26,1.22-0.69,2.42-0.85,3.66c-0.22,1.68-0.31,3.39-0.38,5.09c-0.05,1.11-0.1,2.25,0.07,3.34c0.32,2.03,0.85,4.02,1.21,6.05
			c0.38,2.17,0.71,4.35,0.95,6.53c0.19,1.69,0.24,3.4,0.33,5.1c0.11,1.89,0.21,3.78,0.31,5.67c0.13,2.51,0.24,5.03,0.4,7.54
			c0.1,1.61,0.23,3.23,0.45,4.83c0.16,1.16,0.35,2.36,0.79,3.43c0.84,2.06,1.91,4.02,2.8,6.05c0.92,2.09,1.59,4.31,2.64,6.32
			c1.25,2.39,2.75,4.65,4.23,6.91c0.86,1.32,1.89,2.53,2.85,3.79c1.04,1.36,2.08,2.73,3.13,4.08c0.43,0.55,0.9,1.06,1.34,1.61
			c1.74,2.17,3.41,4.41,5.24,6.5c1.34,1.53,2.81,2.99,4.39,4.29c1.72,1.43,3.53,2.81,5.47,3.9c3.04,1.7,6.22,3.14,9.34,4.68
			c2.64,1.3,5.27,2.61,7.94,3.83c1.06,0.48,2.21,0.79,3.35,1.08c1.35,0.34,2.71,0.74,4.08,0.83c1.97,0.13,3.96-0.01,5.95-0.02
			c3.22-0.02,6.43,0.03,9.61,0.67c1.39,0.28,2.8,0.49,4.2,0.76c1.42,0.27,2.82,0.76,4.25,0.84c2.68,0.16,5.38,0.12,8.07,0.08
			c0.34-0.01,0.95-0.52,0.96-0.82c0.08-1.49,0.12-3-0.05-4.48c-0.26-2.35-0.68-4.69-1.06-7.03c-0.2-1.27-0.38-2.55-0.7-3.8
			c-0.6-2.37-1.35-4.7-1.92-7.08c-0.41-1.69-0.78-3.41-0.91-5.13c-0.23-3.02-0.33-6.06-0.37-9.1c-0.09-6.99-0.11-13.98-0.16-20.97
			c0-0.32-0.01-0.66-0.09-0.97c-0.27-1.09-0.58-2.16-0.88-3.24c-0.37-1.37-0.59-2.8-1.13-4.09c-1.24-2.92-1.86-5.96-2.17-9.09
			c-0.06-0.56-0.18-1.12-0.29-1.68c-0.36-1.77-0.85-3.52-1.04-5.3c-0.14-1.29,0.1-2.63,0.17-3.95c0.13-2.29,0.21-4.59,0.39-6.88
			c0.13-1.61,0.24-3.25,0.65-4.8c0.62-2.31,1.5-4.55,2.26-6.82c0.41-1.21,0.86-2.39,0.87-3.73c0.01-2.49,0.21-4.98,0.33-7.47
			c0.01-0.16,0.08-0.32,0.09-0.48c0.05-1.3,0.12-2.59,0.11-3.89c-0.01-1.4-0.22-2.81-0.15-4.2c0.08-1.72,0.48-3.42,0.53-5.14
			c0.17-5.81,0.24-11.62,0.37-17.42c0.03-1.17,0.08-2.34,0.25-3.49c0.21-1.37,0.67-2.7,0.84-4.07c0.22-1.74,0.23-3.5,0.37-5.26
			c0.07-0.91,0.23-1.81,0.35-2.72c0.2-1.6,0.53-3.19,0.57-4.8c0.05-2.02-0.11-4.06-0.21-6.08c-0.1-1.92-0.23-3.83-0.38-5.74
			C190.84,199.94,190.67,198.42,190.5,196.63z"/>
		<path class="st3" d="M190.5,196.63c0.17,1.79,0.34,3.31,0.46,4.84c0.15,1.91,0.28,3.83,0.38,5.74c0.11,2.03,0.26,4.06,0.21,6.08
			c-0.04,1.6-0.37,3.2-0.57,4.8c-0.12,0.91-0.28,1.81-0.35,2.72c-0.14,1.75-0.16,3.52-0.37,5.26c-0.17,1.37-0.63,2.7-0.84,4.07
			c-0.18,1.15-0.23,2.33-0.25,3.49c-0.13,5.81-0.2,11.62-0.37,17.42c-0.05,1.72-0.45,3.42-0.53,5.14c-0.07,1.39,0.14,2.8,0.15,4.2
			c0.01,1.3-0.06,2.59-0.11,3.89c-0.01,0.16-0.08,0.32-0.09,0.48c-0.12,2.49-0.32,4.98-0.33,7.47c-0.01,1.34-0.46,2.52-0.87,3.73
			c-0.76,2.27-1.64,4.51-2.26,6.82c-0.41,1.55-0.52,3.19-0.65,4.8c-0.19,2.29-0.27,4.59-0.39,6.88c-0.07,1.32-0.31,2.65-0.17,3.95
			c0.2,1.78,0.69,3.53,1.04,5.3c0.11,0.56,0.24,1.11,0.29,1.68c0.31,3.13,0.93,6.17,2.17,9.09c0.55,1.29,0.76,2.72,1.13,4.09
			c0.29,1.08,0.6,2.16,0.88,3.24c0.08,0.31,0.08,0.64,0.09,0.97c0.05,6.99,0.07,13.98,0.16,20.97c0.04,3.03,0.14,6.07,0.37,9.1
			c0.13,1.72,0.5,3.44,0.91,5.13c0.58,2.38,1.32,4.71,1.92,7.08c0.31,1.24,0.5,2.52,0.7,3.8c0.38,2.34,0.8,4.68,1.06,7.03
			c0.16,1.48,0.13,2.99,0.05,4.48c-0.02,0.3-0.62,0.81-0.96,0.82c-2.69,0.04-5.39,0.08-8.07-0.08c-1.43-0.08-2.83-0.57-4.25-0.84
			c-1.4-0.27-2.8-0.48-4.2-0.76c-3.18-0.65-6.39-0.69-9.61-0.67c-1.98,0.01-3.97,0.15-5.95,0.02c-1.37-0.09-2.74-0.49-4.08-0.83
			c-1.13-0.29-2.29-0.6-3.35-1.08c-2.67-1.22-5.3-2.53-7.94-3.83c-3.13-1.54-6.31-2.98-9.34-4.68c-1.94-1.09-3.75-2.47-5.47-3.9
			c-1.57-1.3-3.04-2.75-4.39-4.29c-1.83-2.09-3.5-4.33-5.24-6.5c-0.44-0.54-0.91-1.06-1.34-1.61c-1.05-1.35-2.09-2.72-3.13-4.08
			c-0.96-1.26-1.99-2.47-2.85-3.79c-1.48-2.26-2.98-4.52-4.23-6.91c-1.05-2.02-1.72-4.23-2.64-6.32c-0.89-2.04-1.96-4-2.8-6.05
			c-0.44-1.07-0.63-2.27-0.79-3.43c-0.22-1.6-0.35-3.22-0.45-4.83c-0.16-2.51-0.27-5.02-0.4-7.54c-0.1-1.89-0.2-3.78-0.31-5.67
			c-0.1-1.7-0.14-3.41-0.33-5.1c-0.25-2.19-0.58-4.36-0.95-6.53c-0.35-2.02-0.89-4.02-1.21-6.05c-0.17-1.09-0.12-2.23-0.07-3.34
			c0.07-1.7,0.16-3.41,0.38-5.09c0.16-1.24,0.59-2.43,0.85-3.66c0.27-1.25,0.47-2.52,0.74-3.78c0.2-0.91,0.47-1.8,0.71-2.7
			c0.31-1.15,0.75-2.28,0.92-3.45c0.29-1.95,1.05-3.7,1.93-5.42c0.72-1.41,1.63-2.72,2.23-4.17c1.22-2.93,3.3-5.35,4.72-8.15
			c0.74-1.47,1.38-2.98,2.02-4.5c0.91-2.16,1.77-4.35,2.69-6.52c0.24-0.56,0.65-1.04,0.95-1.58c1.17-2.05,2.31-4.13,3.51-6.16
			c0.86-1.45,1.82-2.85,2.73-4.28c1.3-2.02,3.51-2.74,5.45-3.88c1.05-0.61,2.02-1.38,2.94-2.19c1.03-0.9,1.91-1.98,2.93-2.89
			c1.42-1.26,2.93-2.41,4.38-3.64c1.39-1.19,2.76-2.41,4.13-3.64c2.16-1.93,4.42-3.68,7.16-4.73c1.79-0.69,3.55-1.45,5.35-2.14
			c0.65-0.25,1.33-0.44,2.02-0.51c1.53-0.17,3.07-0.27,4.61-0.37c1.86-0.13,3.75-0.07,5.58-0.38c2.78-0.47,5.57-0.58,8.38-0.67
			c1.67-0.05,3.35-0.13,5.02-0.31c1.14-0.12,2.25-0.51,3.39-0.65C187.27,196.84,188.89,196.76,190.5,196.63z M109.03,293.66
			c0.04,0.81,0,1.64,0.13,2.44c0.24,1.53,0.5,3.07,0.89,4.57c0.3,1.15,0.65,2.34,1.26,3.35c0.97,1.6,1.44,3.32,1.84,5.11
			c0.43,1.91,0.96,3.81,1.59,5.67c0.6,1.76,1.05,3.54,1.37,5.37c0.19,1.1,0.55,2.17,0.86,3.24c0.29,1.03,0.58,2.06,0.92,3.07
			c0.48,1.4,0.64,2.94,1.65,4.12c1.14,1.33,2.14,2.83,3.8,3.59c2.04,0.93,4.13,1.41,6.46,1.08c1.91-0.27,3.7-0.74,5.5-1.36
			c4.06-1.4,7.53-3.81,10.93-6.34c3-2.23,5.9-4.58,8.88-6.83c1.15-0.87,2.35-1.7,3.61-2.39c2.66-1.46,5.32-2.88,7.45-5.12
			c1.13-1.19,2.5-2.04,3.96-2.78c1.72-0.87,3.34-1.88,4.46-3.52c0.64-0.94,1.3-1.88,1.95-2.81c1.21-1.75,2.1-3.17,0.81-5.29
			c-0.07-0.11-0.15-0.23-0.18-0.36c-0.26-1.01-1.06-1.39-1.94-1.52c-1.17-0.18-2.38-0.14-3.54-0.32c-1.61-0.26-3.19-0.82-4.81-0.93
			c-2.61-0.19-4.91-1.3-7.26-2.18c-1.54-0.57-3.11-0.79-4.67-1.13c-1.28-0.28-2.58-0.49-3.87-0.76c-1.86-0.4-3.71-0.85-5.57-1.23
			c-0.95-0.2-1.92-0.26-2.87-0.47c-0.96-0.21-1.89-0.65-2.86-0.79c-1.84-0.28-3.69-0.46-5.54-0.6c-2.48-0.18-4.97-0.29-7.46-0.43
			c-0.11-0.01-0.22-0.02-0.32-0.03c-1.85-0.19-3.69-0.45-5.55-0.55c-1.35-0.08-2.66-0.12-3.93-0.69c-1.11-0.5-2.29-0.87-3.45-1.26
			c-1.22-0.41-2.41,0.33-3.16,1.87C109.41,289.4,108.99,291.48,109.03,293.66z M169.82,287.72c1.26-0.24,2.63-0.23,3.75-0.76
			c2.13-1.01,3.38-2.77,3.23-5.27c-0.06-1.07-0.12-2.15-0.35-3.19c-0.29-1.25-0.74-2.45-1.17-3.66c-0.4-1.13-0.72-2.3-1.63-3.17
			c-1.35-1.29-2.43-2.79-3.3-4.42c-1.11-2.06-2.69-3.68-4.55-5.01c-2.17-1.55-3.86-3.5-5.38-5.67c-1.35-1.92-2.87-3.8-5.13-4.71
			c-2.77-1.12-4.61-3.11-5.89-5.74c-0.63-1.3-1.34-2.56-2.6-3.43c-0.85-0.59-1.72-1.22-2.38-2c-1.35-1.61-2.6-3.31-3.81-5.03
			c-0.97-1.37-2.09-2.53-3.49-3.46c-1.88-1.25-3.81-1.42-5.77-0.38c-0.95,0.51-1.77,1.26-2.66,1.89c-1.28,0.92-2.45,1.92-2.54,3.67
			c-0.01,0.15-0.1,0.31-0.17,0.45c-0.85,1.64-1.6,3.34-2.57,4.91c-1.45,2.33-2.61,4.68-2.34,7.54c0.06,0.6-0.14,1.32-0.44,1.85
			c-0.54,0.94-1.28,1.76-1.89,2.67c-0.59,0.88-1.24,1.74-1.65,2.7c-0.59,1.39-1.03,2.84-1.45,4.3c-0.46,1.6-0.81,3.23-1.2,4.86
			c-0.31,1.28-0.56,2.58-0.89,3.86c-0.42,1.63-0.92,3.24-0.83,4.94c0.03,0.56,0.03,1.17,0.24,1.67c1.07,2.54,3.21,3.63,5.76,4.17
			c0.96,0.21,1.89,0.54,2.82,0.86c2.77,0.96,5.25,2.61,8.21,3.15c2.35,0.43,4.63,0.14,6.92-0.21c1.14-0.17,2.27-0.4,3.41-0.55
			c0.56-0.08,1.14-0.01,1.71-0.06c1.64-0.16,3.27-0.41,4.91-0.52c2.71-0.18,5.29,0.62,7.86,1.32c2.4,0.66,4.8,1.18,7.29,1.25
			c1.02,0.03,2.04,0.19,3.05,0.34C166.53,287.14,168.14,287.43,169.82,287.72z M173.26,373.92c0,0.04,0.01,0.07,0.01,0.11
			c1.23-0.13,2.49-0.14,3.69-0.42c1.86-0.44,3.67-1.06,5.5-1.62c0.81-0.25,1.55-0.65,1.91-1.47c0.56-1.26,0.73-2.58,0.51-3.95
			c-0.25-1.59-0.5-3.17-0.72-4.76c-0.15-1.09-0.2-2.2-0.36-3.29c-0.14-0.92-0.38-1.83-0.55-2.74c-0.27-1.47-0.87-2.86-0.76-4.42
			c0.19-2.61,0.26-5.24,0.31-7.86c0.02-1.04-0.12-2.09-0.27-3.13c-0.2-1.4-0.49-2.79-0.72-4.19c-0.2-1.25-0.51-2.49-0.54-3.74
			c-0.08-3.05-0.18-6.09-0.68-9.12c-0.34-2.08-0.34-4.21-0.53-6.32c-0.1-1.13-0.26-2.26-0.44-3.38c-0.11-0.72-0.22-1.45-0.46-2.12
			c-0.48-1.35-1.87-1.48-2.94-2.01c-0.87-0.44-1.75-0.54-2.62-0.02c-3.45,2.07-6.21,4.81-8.16,8.37c-0.66,1.21-1.48,2.34-2.26,3.48
			c-0.35,0.51-0.76,0.97-1.17,1.42c-0.7,0.77-1.39,1.56-2.16,2.25c-1.07,0.96-2.27,1.77-3.32,2.76c-1.27,1.19-2.33,2.63-3.68,3.72
			c-1.67,1.35-3.53,2.48-5.34,3.66c-1.35,0.89-2.83,1.6-4.11,2.58c-2.23,1.7-3.62,4.15-5.29,6.34c-0.66,0.87-1.44,1.68-1.95,2.63
			c-0.7,1.29-1.23,2.68-1.79,4.05c-0.54,1.32-0.94,2.65-0.36,4.09c0.26,0.65,0.51,1.32,0.65,2c0.4,1.91,1.42,3.3,3.18,4.19
			c0.69,0.35,1.32,0.86,1.9,1.39c1.31,1.21,2.57,2.43,4.4,2.92c1.08,0.29,2.09,0.91,3.07,1.48c0.66,0.38,1.18,0.99,1.84,1.37
			c1.99,1.14,3.87,2.5,6.16,3.04c1.48,0.35,2.93,0.8,4.4,1.18c1.47,0.37,2.97,0.65,4.42,1.08c1.62,0.47,3.22,1.05,4.94,0.9
			C170.43,374.21,171.84,374.06,173.26,373.92z M173.02,205.27c-2.52-0.26-4.33,0.2-6.02,0.98c-2.23,1.03-4.32,2.34-6.54,3.38
			c-2.67,1.25-5.3,2.68-8.38,2.78c-0.59,0.02-1.23,0.22-1.75,0.52c-1.09,0.62-2.08,1.42-3.17,2.05c-1.8,1.04-3.01,2.64-4.21,4.25
			c-0.35,0.47-0.8,0.9-1.04,1.42c-0.92,2.06-1.76,4.13-1.75,6.46c0.01,0.99,0.28,1.73,0.94,2.46c1.47,1.63,2.89,3.3,4.27,5
			c1.25,1.55,2.65,2.98,3.51,4.86c0.39,0.86,1.35,1.46,2.03,2.2c0.93,1.02,1.82,2.09,2.77,3.09c1.7,1.81,3.45,3.57,5.14,5.39
			c1.38,1.48,2.7,3.02,4.04,4.53c0.9,1.02,1.83,2.01,2.7,3.05c1.18,1.4,2.13,2.98,3.85,3.88c0.74,0.39,1.52,1.04,1.88,1.77
			c1.11,2.26,3.03,3.67,4.97,5c0.94,0.65,2.28,0.71,3.4,1.14c1.67,0.63,4.14-0.19,4.81-1.81c0.33-0.82,0.44-1.78,0.45-2.67
			c0.02-2.09-0.02-4.19-0.16-6.28c-0.1-1.49-0.59-2.97-0.56-4.45c0.06-3.8-0.31-7.59,0.51-11.41c0.61-2.86,0.52-5.87-0.19-8.8
			c-0.13-0.54-0.17-1.12-0.14-1.68c0.11-1.78,0.31-3.55,0.41-5.32c0.06-1.17,0-2.34,0.03-3.51c0.02-0.68,0.08-1.36,0.21-2.02
			c0.26-1.31,0.79-2.59,0.84-3.9c0.07-1.94-0.13-3.89-0.32-5.83c-0.17-1.68-0.56-3.34-0.7-5.02c-0.11-1.38-0.53-2.29-1.97-2.74
			c-1.78-0.55-3.47-0.66-5.26,0C175.94,204.68,174.3,205.56,173.02,205.27z"/>
		<path d="M109.03,293.66c-0.04-2.18,0.37-4.26,1.33-6.23c0.75-1.54,1.94-2.27,3.16-1.87c1.16,0.39,2.33,0.76,3.45,1.26
			c1.27,0.57,2.59,0.61,3.93,0.69c1.85,0.1,3.7,0.36,5.55,0.55c0.11,0.01,0.22,0.02,0.32,0.03c2.49,0.14,4.98,0.24,7.46,0.43
			c1.85,0.14,3.71,0.32,5.54,0.6c0.97,0.15,1.89,0.58,2.86,0.79c0.94,0.21,1.92,0.27,2.87,0.47c1.86,0.39,3.71,0.84,5.57,1.23
			c1.29,0.27,2.58,0.48,3.87,0.76c1.56,0.34,3.13,0.55,4.67,1.13c2.36,0.88,4.66,1.99,7.26,2.18c1.62,0.12,3.2,0.68,4.81,0.93
			c1.17,0.19,2.37,0.15,3.54,0.32c0.88,0.13,1.68,0.51,1.94,1.52c0.03,0.13,0.11,0.24,0.18,0.36c1.29,2.12,0.4,3.55-0.81,5.29
			c-0.65,0.94-1.31,1.87-1.95,2.81c-1.12,1.65-2.74,2.66-4.46,3.52c-1.46,0.74-2.83,1.59-3.96,2.78c-2.12,2.24-4.79,3.66-7.45,5.12
			c-1.26,0.69-2.46,1.52-3.61,2.39c-2.98,2.25-5.88,4.61-8.88,6.83c-3.4,2.52-6.86,4.93-10.93,6.34c-1.8,0.62-3.6,1.1-5.5,1.36
			c-2.33,0.33-4.41-0.15-6.46-1.08c-1.66-0.76-2.66-2.26-3.8-3.59c-1.01-1.18-1.17-2.72-1.65-4.12c-0.34-1.01-0.63-2.04-0.92-3.07
			c-0.31-1.08-0.67-2.14-0.86-3.24c-0.32-1.83-0.77-3.61-1.37-5.37c-0.63-1.86-1.15-3.76-1.59-5.67c-0.41-1.79-0.88-3.51-1.84-5.11
			c-0.61-1-0.96-2.19-1.26-3.35c-0.39-1.5-0.65-3.03-0.89-4.57C109.04,295.3,109.07,294.47,109.03,293.66z M111.41,293.69
			c-0.08,0.01-0.16,0.02-0.25,0.03c0.29,1.8,0.48,3.62,0.89,5.39c0.36,1.58,0.81,3.17,1.51,4.62c0.86,1.76,1.67,3.49,1.96,5.45
			c0.17,1.13,0.49,2.25,0.8,3.36c0.49,1.76,1.17,3.49,1.52,5.28c0.5,2.58,1.01,5.13,2.05,7.55c0.59,1.36,0.64,2.88,1.55,4.17
			c1.41,2,3.26,3.13,5.6,3.66c1.04,0.23,2.01,0.12,3.04,0.02c1.99-0.18,3.84-0.8,5.64-1.53c3.91-1.58,7.27-4.07,10.57-6.63
			c2.5-1.93,4.93-3.97,7.46-5.86c1.42-1.06,3-1.91,4.5-2.87c1.52-0.97,3.26-1.53,4.66-2.73c1.77-1.5,3.62-2.92,5.47-4.32
			c1.01-0.77,2.27-1.27,3.13-2.16c1.31-1.36,2.38-2.95,3.53-4.45c0.75-0.97,0.8-1.81,0.24-2.77c-0.54-0.93-1.54-0.88-2.39-1.1
			c-1.03-0.28-2.11-0.4-3.16-0.61c-1.37-0.28-2.72-0.75-4.09-0.83c-2.43-0.14-4.57-1.14-6.78-1.94c-1.45-0.53-2.88-0.97-4.44-1.1
			c-1.36-0.11-2.73-0.34-4.05-0.7c-2.59-0.71-5.17-1.41-7.87-1.59c-0.66-0.04-1.3-0.31-1.95-0.48c-0.96-0.25-1.9-0.62-2.87-0.74
			c-1.58-0.2-3.18-0.25-4.77-0.33c-1.25-0.06-2.5,0-3.75-0.09c-2.12-0.16-4.24-0.42-6.36-0.6c-1.64-0.14-3.29-0.23-4.93-0.36
			c-0.23-0.02-0.45-0.16-0.68-0.23c-1.28-0.44-2.56-0.91-3.86-1.32c-0.37-0.12-0.74-0.21-1.03,0.39
			C111.46,290.01,111.29,291.81,111.41,293.69z"/>
		<path d="M169.82,287.72c-1.68-0.29-3.28-0.59-4.9-0.84c-1.01-0.16-2.03-0.31-3.05-0.34c-2.5-0.07-4.89-0.6-7.29-1.25
			c-2.57-0.7-5.14-1.5-7.86-1.32c-1.64,0.11-3.27,0.36-4.91,0.52c-0.57,0.06-1.15-0.01-1.71,0.06c-1.14,0.15-2.27,0.38-3.41,0.55
			c-2.3,0.35-4.57,0.64-6.92,0.21c-2.96-0.54-5.44-2.19-8.21-3.15c-0.93-0.32-1.86-0.65-2.82-0.86c-2.55-0.55-4.69-1.63-5.76-4.17
			c-0.21-0.5-0.21-1.11-0.24-1.67c-0.09-1.71,0.41-3.32,0.83-4.94c0.33-1.28,0.58-2.58,0.89-3.86c0.39-1.62,0.74-3.25,1.2-4.86
			c0.41-1.45,0.86-2.91,1.45-4.3c0.41-0.96,1.06-1.83,1.65-2.7c0.61-0.9,1.35-1.73,1.89-2.67c0.31-0.53,0.5-1.25,0.44-1.85
			c-0.27-2.86,0.89-5.21,2.34-7.54c0.97-1.56,1.73-3.26,2.57-4.91c0.07-0.14,0.16-0.3,0.17-0.45c0.09-1.75,1.26-2.75,2.54-3.67
			c0.88-0.64,1.71-1.38,2.66-1.89c1.96-1.05,3.89-0.87,5.77,0.38c1.4,0.93,2.52,2.1,3.49,3.46c1.22,1.71,2.47,3.41,3.81,5.03
			c0.66,0.78,1.53,1.41,2.38,2c1.26,0.87,1.97,2.12,2.6,3.43c1.28,2.63,3.11,4.61,5.89,5.74c2.26,0.92,3.78,2.79,5.13,4.71
			c1.52,2.17,3.21,4.11,5.38,5.67c1.86,1.33,3.44,2.95,4.55,5.01c0.87,1.63,1.95,3.14,3.3,4.42c0.91,0.86,1.23,2.04,1.63,3.17
			c0.42,1.21,0.88,2.42,1.17,3.66c0.24,1.04,0.29,2.12,0.35,3.19c0.15,2.49-1.1,4.26-3.23,5.27
			C172.45,287.49,171.08,287.48,169.82,287.72z M147.51,282.16c0.9,0.09,2.47,0.19,4.01,0.44c1.24,0.2,2.44,0.58,3.67,0.88
			c1.43,0.35,2.85,0.8,4.3,1c2.37,0.31,4.75,0.43,7.12,0.93c1.8,0.39,3.69,0.77,5.6,0.12c1.11-0.38,2.56-1.49,2.68-2.62
			c0.18-1.66-0.01-3.28-0.68-4.84c-0.35-0.81-0.58-1.67-0.9-2.49c-0.38-0.97-0.67-2-1.22-2.86c-1.09-1.73-2.3-3.38-3.51-5.03
			c-0.72-0.98-1.39-2.07-2.33-2.8c-1.67-1.29-3.44-2.45-4.82-4.08c-0.7-0.83-1.43-1.65-2.1-2.5c-0.71-0.89-1.23-2-2.1-2.69
			c-1.45-1.15-3.06-2.15-4.69-3.03c-1.77-0.95-3.07-2.26-3.93-4.06c-0.68-1.42-1.39-2.82-2.59-3.89c-2.24-1.98-4.36-4.03-5.93-6.66
			c-1.03-1.72-2.39-3.3-4.21-4.34c-0.97-0.55-1.83-1.02-3.08-0.6c-1.49,0.5-2.58,1.51-3.69,2.46c-0.62,0.53-1.06,1.36-1.36,2.13
			c-0.81,2.07-1.57,4.17-2.84,6.01c-1.44,2.09-2.56,4.24-2.29,6.91c0.07,0.68-0.24,1.48-0.59,2.11c-0.62,1.14-1.45,2.16-2.1,3.28
			c-0.72,1.24-1.46,2.5-1.97,3.83c-0.52,1.38-0.78,2.86-1.11,4.31c-0.28,1.21-0.47,2.43-0.73,3.65c-0.27,1.25-0.6,2.49-0.87,3.74
			c-0.27,1.23-0.59,2.45-0.7,3.7c-0.14,1.47,1.68,3.67,3.87,4.12c1.74,0.36,3.46,0.9,5.14,1.5c2.18,0.78,4.12,2.23,6.49,2.46
			c1.63,0.16,3.29,0.29,4.92,0.18c1.57-0.11,3.11-0.65,4.68-0.81C142.02,282.4,144.43,282.34,147.51,282.16z"/>
		<path d="M173.26,373.92c-1.42,0.14-2.84,0.29-4.26,0.41c-1.73,0.15-3.32-0.43-4.94-0.9c-1.46-0.42-2.95-0.7-4.42-1.08
			c-1.47-0.38-2.93-0.83-4.4-1.18c-2.3-0.54-4.18-1.9-6.16-3.04c-0.66-0.38-1.18-0.99-1.84-1.37c-0.99-0.56-1.99-1.19-3.07-1.48
			c-1.83-0.49-3.09-1.71-4.4-2.92c-0.57-0.53-1.2-1.04-1.9-1.39c-1.76-0.89-2.78-2.28-3.18-4.19c-0.14-0.68-0.39-1.35-0.65-2
			c-0.58-1.43-0.18-2.77,0.36-4.09c0.56-1.36,1.08-2.76,1.79-4.05c0.52-0.95,1.29-1.76,1.95-2.63c1.67-2.2,3.06-4.64,5.29-6.34
			c1.28-0.98,2.75-1.69,4.11-2.58c1.81-1.18,3.66-2.31,5.34-3.66c1.35-1.09,2.41-2.53,3.68-3.72c1.05-0.98,2.25-1.8,3.32-2.76
			c0.77-0.69,1.46-1.48,2.16-2.25c0.41-0.45,0.83-0.92,1.17-1.42c0.78-1.14,1.6-2.27,2.26-3.48c1.94-3.56,4.71-6.3,8.16-8.37
			c0.87-0.52,1.75-0.41,2.62,0.02c1.07,0.54,2.46,0.66,2.94,2.01c0.24,0.68,0.35,1.41,0.46,2.12c0.17,1.12,0.34,2.25,0.44,3.38
			c0.19,2.11,0.19,4.24,0.53,6.32c0.5,3.03,0.59,6.06,0.68,9.12c0.03,1.25,0.34,2.5,0.54,3.74c0.23,1.4,0.52,2.79,0.72,4.19
			c0.15,1.03,0.29,2.09,0.27,3.13c-0.04,2.62-0.11,5.25-0.31,7.86c-0.11,1.57,0.48,2.96,0.76,4.42c0.17,0.92,0.41,1.82,0.55,2.74
			c0.16,1.09,0.21,2.2,0.36,3.29c0.22,1.59,0.47,3.18,0.72,4.76c0.22,1.37,0.05,2.69-0.51,3.95c-0.36,0.82-1.09,1.22-1.91,1.47
			c-1.83,0.56-3.65,1.18-5.5,1.62c-1.2,0.28-2.46,0.29-3.69,0.42C173.27,373.99,173.27,373.95,173.26,373.92z M181.01,342.86
			c0.1-0.01,0.2-0.02,0.3-0.03c-0.29-1.57-0.6-3.15-0.87-4.72c-0.09-0.56-0.07-1.14-0.13-1.7c-0.2-1.79-0.46-3.58-0.61-5.37
			c-0.17-2.02-0.24-4.05-0.35-6.08c0-0.08-0.01-0.16-0.02-0.24c-0.3-1.47-0.85-2.93-0.86-4.4c-0.01-2.48-0.51-4.88-0.75-7.32
			c-0.06-0.63-0.26-1.2-0.92-1.48c-0.37-0.16-0.74-0.29-1.1-0.48c-0.59-0.31-1.14-0.31-1.74,0.01c-1.41,0.76-2.54,1.85-3.56,3.06
			c-1.01,1.2-2.08,2.37-2.99,3.64c-0.5,0.7-0.56,1.72-1.09,2.38c-1.62,2.04-3.3,4.05-5.1,5.94c-1.39,1.46-3.1,2.63-4.48,4.11
			c-2.8,3-6.01,5.41-9.61,7.34c-1.05,0.56-2.13,1.2-2.93,2.05c-1.84,1.95-3.47,4.08-5,6.3c-1.14,1.66-2.11,3.36-2.86,5.19
			c-0.32,0.79-0.39,1.71-0.45,2.58c-0.03,0.46,0.17,0.94,0.3,1.41c0.42,1.55,0.78,3.09,2.47,3.91c1.13,0.55,2.27,1.29,3.1,2.22
			c1.06,1.2,2.32,1.87,3.78,2.37c1.03,0.35,2.2,0.69,2.94,1.41c1.76,1.69,3.86,2.85,6.02,3.72c2.62,1.06,5.46,1.57,8.2,2.34
			c1.3,0.37,2.58,0.86,3.9,1.16c1.09,0.25,2.23,0.42,3.34,0.38c1.44-0.05,2.88-0.48,4.32-0.51c2.51-0.05,4.82-0.62,7.02-1.88
			c1.12-0.64,1.65-1.39,1.5-2.63c-0.23-1.92-0.47-3.85-0.71-5.77c-0.01-0.08-0.08-0.15-0.09-0.22c-0.27-1.31-0.64-2.61-0.78-3.93
			c-0.2-1.82-0.33-3.66-0.33-5.5C180.85,349.03,180.96,345.94,181.01,342.86z"/>
		<path d="M173.02,205.27c1.28,0.29,2.92-0.59,4.59-1.2c1.79-0.66,3.48-0.55,5.26,0c1.44,0.44,1.86,1.36,1.97,2.74
			c0.13,1.68,0.53,3.34,0.7,5.02c0.19,1.94,0.39,3.89,0.32,5.83c-0.05,1.31-0.58,2.59-0.84,3.9c-0.13,0.66-0.19,1.35-0.21,2.02
			c-0.04,1.17,0.03,2.34-0.03,3.51c-0.1,1.78-0.3,3.55-0.41,5.32c-0.03,0.55,0,1.14,0.14,1.68c0.71,2.92,0.8,5.93,0.19,8.8
			c-0.81,3.81-0.44,7.61-0.51,11.41c-0.02,1.48,0.47,2.96,0.56,4.45c0.14,2.09,0.18,4.18,0.16,6.28c-0.01,0.9-0.11,1.86-0.45,2.67
			c-0.66,1.62-3.14,2.44-4.81,1.81c-1.12-0.43-2.45-0.49-3.4-1.14c-1.94-1.34-3.87-2.75-4.97-5c-0.36-0.73-1.14-1.38-1.88-1.77
			c-1.71-0.91-2.67-2.48-3.85-3.88c-0.87-1.04-1.8-2.04-2.7-3.05c-1.35-1.51-2.67-3.05-4.04-4.53c-1.69-1.82-3.44-3.58-5.14-5.39
			c-0.95-1.01-1.84-2.07-2.77-3.09c-0.68-0.74-1.64-1.34-2.03-2.2c-0.86-1.88-2.25-3.31-3.51-4.86c-1.38-1.71-2.8-3.38-4.27-5
			c-0.66-0.73-0.94-1.47-0.94-2.46c-0.01-2.33,0.83-4.41,1.75-6.46c0.23-0.52,0.69-0.95,1.04-1.42c1.2-1.62,2.41-3.21,4.21-4.25
			c1.09-0.63,2.08-1.43,3.17-2.05c0.51-0.3,1.15-0.5,1.75-0.52c3.07-0.1,5.7-1.54,8.38-2.78c2.22-1.04,4.32-2.35,6.54-3.38
			C168.69,205.47,170.5,205.01,173.02,205.27z M184.36,216.15c0-0.71,0.08-1.59-0.02-2.45c-0.27-2.35-0.61-4.7-0.93-7.05
			c-0.07-0.51-0.22-0.92-0.79-1.18c-1.62-0.73-3.2-0.69-4.84-0.08c-1.42,0.53-2.79,1.26-4.39,1.17c-2.43-0.13-4.68,0.31-6.86,1.54
			c-2.71,1.53-5.55,2.84-8.39,4.13c-1.37,0.63-2.84,1.1-4.31,1.44c-1.33,0.31-2.74,0.28-3.89,1.21c-1.24,1-2.6,1.86-3.78,2.93
			c-1.33,1.2-2.37,2.68-3.04,4.36c-0.45,1.13-0.88,2.29-1.14,3.48c-0.15,0.7-0.23,1.68,0.14,2.18c1.12,1.52,2.47,2.87,3.72,4.3
			c0.95,1.08,1.94,2.13,2.8,3.29c1.3,1.75,2.14,3.78,3.95,5.22c1.52,1.21,2.66,2.9,4.01,4.34c1.65,1.76,3.36,3.47,5.01,5.23
			c1.45,1.56,2.85,3.16,4.27,4.75c0.37,0.41,0.71,0.86,1.06,1.29c0.74,0.91,1.35,1.96,2.24,2.69c1.34,1.11,2.84,2.06,3.75,3.58
			c0.63,1.05,1.29,2,2.34,2.66c0.98,0.62,1.86,1.42,2.87,1.97c0.8,0.43,1.74,0.66,2.64,0.86c1.22,0.26,2.52-0.41,2.59-1.45
			c0.12-1.7,0.09-3.43-0.01-5.13c-0.08-1.42-0.47-2.82-0.51-4.23c-0.09-3.04,0.02-6.09-0.09-9.14c-0.08-2.24,0.29-4.42,0.78-6.56
			c0.5-2.16,0.11-4.21-0.3-6.3c-0.21-1.1-0.35-2.23-0.38-3.35c-0.02-0.77,0.18-1.54,0.3-2.31c0.04-0.24,0.14-0.47,0.17-0.7
			c0.04-0.37,0.17-0.79,0.05-1.12c-0.64-1.87-0.11-3.72,0.18-5.52C183.86,220.24,184.62,218.35,184.36,216.15z"/>
		<path class="st4" d="M111.41,293.69c-0.12-1.88,0.05-3.68,0.9-5.42c0.29-0.6,0.66-0.51,1.03-0.39c1.3,0.41,2.57,0.87,3.86,1.32
			c0.23,0.08,0.45,0.22,0.68,0.23c1.64,0.13,3.29,0.22,4.93,0.36c2.12,0.18,4.24,0.44,6.36,0.6c1.24,0.09,2.5,0.03,3.75,0.09
			c1.59,0.07,3.19,0.13,4.77,0.33c0.97,0.12,1.92,0.49,2.87,0.74c0.65,0.17,1.29,0.43,1.95,0.48c2.7,0.18,5.28,0.88,7.87,1.59
			c1.32,0.36,2.69,0.59,4.05,0.7c1.55,0.13,2.98,0.57,4.44,1.1c2.21,0.8,4.35,1.8,6.78,1.94c1.37,0.08,2.72,0.56,4.09,0.83
			c1.05,0.21,2.13,0.33,3.16,0.61c0.85,0.23,1.85,0.18,2.39,1.1c0.56,0.96,0.51,1.8-0.24,2.77c-1.16,1.5-2.23,3.09-3.53,4.45
			c-0.86,0.89-2.12,1.4-3.13,2.16c-1.85,1.4-3.7,2.82-5.47,4.32c-1.4,1.2-3.15,1.76-4.66,2.73c-1.5,0.96-3.08,1.81-4.5,2.87
			c-2.53,1.89-4.96,3.93-7.46,5.86c-3.3,2.55-6.66,5.05-10.57,6.63c-1.81,0.73-3.66,1.35-5.64,1.53c-1.03,0.09-2,0.21-3.04-0.02
			c-2.34-0.53-4.19-1.66-5.6-3.66c-0.91-1.29-0.96-2.81-1.55-4.17c-1.05-2.42-1.56-4.97-2.05-7.55c-0.34-1.79-1.03-3.52-1.52-5.28
			c-0.31-1.11-0.63-2.22-0.8-3.36c-0.29-1.96-1.1-3.69-1.96-5.45c-0.7-1.45-1.14-3.04-1.51-4.62c-0.41-1.77-0.6-3.59-0.89-5.39
			C111.24,293.71,111.32,293.7,111.41,293.69z"/>
		<path class="st4" d="M147.51,282.16c-3.08,0.18-5.49,0.24-7.89,0.48c-1.57,0.16-3.11,0.7-4.68,0.81
			c-1.63,0.11-3.29-0.02-4.92-0.18c-2.37-0.23-4.31-1.68-6.49-2.46c-1.68-0.6-3.39-1.14-5.14-1.5c-2.19-0.45-4-2.65-3.87-4.12
			c0.12-1.24,0.44-2.47,0.7-3.7c0.27-1.25,0.6-2.49,0.87-3.74c0.26-1.21,0.46-2.44,0.73-3.65c0.33-1.45,0.59-2.93,1.11-4.31
			c0.5-1.34,1.25-2.59,1.97-3.83c0.65-1.12,1.48-2.14,2.1-3.28c0.35-0.63,0.66-1.43,0.59-2.11c-0.27-2.68,0.85-4.83,2.29-6.91
			c1.27-1.84,2.03-3.94,2.84-6.01c0.3-0.78,0.75-1.61,1.36-2.13c1.12-0.95,2.21-1.95,3.69-2.46c1.25-0.42,2.12,0.05,3.08,0.6
			c1.83,1.04,3.18,2.62,4.21,4.34c1.57,2.62,3.69,4.68,5.93,6.66c1.21,1.07,1.92,2.47,2.59,3.89c0.85,1.79,2.15,3.11,3.93,4.06
			c1.64,0.88,3.24,1.87,4.69,3.03c0.87,0.69,1.39,1.8,2.1,2.69c0.68,0.85,1.4,1.67,2.1,2.5c1.38,1.63,3.15,2.79,4.82,4.08
			c0.94,0.72,1.61,1.82,2.33,2.8c1.21,1.65,2.42,3.3,3.51,5.03c0.55,0.87,0.84,1.89,1.22,2.86c0.32,0.82,0.56,1.68,0.9,2.49
			c0.67,1.56,0.86,3.18,0.68,4.84c-0.12,1.13-1.57,2.24-2.68,2.62c-1.91,0.65-3.8,0.26-5.6-0.12c-2.36-0.51-4.75-0.62-7.12-0.93
			c-1.45-0.19-2.87-0.65-4.3-1c-1.22-0.29-2.43-0.68-3.67-0.88C149.98,282.35,148.41,282.25,147.51,282.16z"/>
		<path class="st4" d="M181.01,342.86c-0.06,3.09-0.16,6.17-0.15,9.26c0.01,1.83,0.13,3.67,0.33,5.5c0.15,1.32,0.51,2.62,0.78,3.93
			c0.02,0.08,0.08,0.15,0.09,0.22c0.24,1.92,0.48,3.85,0.71,5.77c0.15,1.24-0.38,1.99-1.5,2.63c-2.2,1.26-4.51,1.82-7.02,1.88
			c-1.44,0.03-2.87,0.46-4.32,0.51c-1.11,0.04-2.25-0.14-3.34-0.38c-1.32-0.3-2.59-0.79-3.9-1.16c-2.74-0.77-5.58-1.29-8.2-2.34
			c-2.16-0.87-4.26-2.03-6.02-3.72c-0.75-0.72-1.91-1.05-2.94-1.41c-1.46-0.5-2.72-1.16-3.78-2.37c-0.82-0.93-1.96-1.67-3.1-2.22
			c-1.7-0.83-2.05-2.36-2.47-3.91c-0.13-0.46-0.33-0.95-0.3-1.41c0.06-0.87,0.12-1.79,0.45-2.58c0.75-1.83,1.72-3.54,2.86-5.19
			c1.53-2.22,3.16-4.35,5-6.3c0.8-0.85,1.88-1.49,2.93-2.05c3.61-1.93,6.81-4.34,9.61-7.34c1.38-1.48,3.09-2.64,4.48-4.11
			c1.8-1.89,3.48-3.9,5.1-5.94c0.53-0.66,0.59-1.68,1.09-2.38c0.91-1.28,1.98-2.44,2.99-3.64c1.02-1.21,2.15-2.29,3.56-3.06
			c0.6-0.32,1.15-0.32,1.74-0.01c0.35,0.19,0.73,0.32,1.1,0.48c0.65,0.28,0.85,0.86,0.92,1.48c0.24,2.44,0.74,4.84,0.75,7.32
			c0.01,1.47,0.55,2.93,0.86,4.4c0.02,0.08,0.02,0.16,0.02,0.24c0.11,2.03,0.18,4.06,0.35,6.08c0.15,1.8,0.41,3.58,0.61,5.37
			c0.06,0.57,0.03,1.15,0.13,1.7c0.27,1.58,0.58,3.15,0.87,4.72C181.21,342.84,181.11,342.85,181.01,342.86z"/>
		<path class="st4" d="M184.36,216.15c0.26,2.2-0.5,4.09-0.82,6.05c-0.29,1.81-0.82,3.65-0.18,5.52c0.11,0.33-0.01,0.74-0.05,1.12
			c-0.03,0.24-0.13,0.47-0.17,0.7c-0.12,0.77-0.32,1.54-0.3,2.31c0.04,1.12,0.17,2.25,0.38,3.35c0.41,2.09,0.8,4.14,0.3,6.3
			c-0.49,2.15-0.86,4.32-0.78,6.56c0.12,3.04,0,6.09,0.09,9.14c0.04,1.41,0.43,2.82,0.51,4.23c0.1,1.71,0.13,3.43,0.01,5.13
			c-0.07,1.04-1.37,1.71-2.59,1.45c-0.9-0.2-1.84-0.43-2.64-0.86c-1.02-0.55-1.89-1.35-2.87-1.97c-1.06-0.66-1.72-1.61-2.34-2.66
			c-0.91-1.52-2.4-2.47-3.75-3.58c-0.88-0.73-1.5-1.78-2.24-2.69c-0.35-0.43-0.69-0.87-1.06-1.29c-1.42-1.59-2.82-3.19-4.27-4.75
			c-1.65-1.77-3.36-3.47-5.01-5.23c-1.35-1.44-2.49-3.12-4.01-4.34c-1.81-1.44-2.65-3.47-3.95-5.22c-0.86-1.15-1.85-2.2-2.8-3.29
			c-1.25-1.43-2.61-2.77-3.72-4.3c-0.37-0.5-0.29-1.48-0.14-2.18c0.26-1.19,0.69-2.35,1.14-3.48c0.67-1.68,1.71-3.15,3.04-4.36
			c1.18-1.07,2.53-1.93,3.78-2.93c1.15-0.92,2.56-0.9,3.89-1.21c1.47-0.34,2.94-0.82,4.31-1.44c2.84-1.29,5.68-2.6,8.39-4.13
			c2.18-1.23,4.43-1.68,6.86-1.54c1.6,0.09,2.97-0.64,4.39-1.17c1.63-0.61,3.22-0.65,4.84,0.08c0.58,0.26,0.72,0.67,0.79,1.18
			c0.33,2.35,0.66,4.69,0.93,7.05C184.44,214.56,184.36,215.44,184.36,216.15z"/>
	</g>
</g>
</svg>
